M48
METRIC,LZ,000.000
;FILE_FORMAT=3:3
;TYPE=PLATED
;Layer: PTH_Through
;EasyEDA v6.5.22, 2023-02-28 17:33:46
;2c88ebba08e7464b96183e005241c5b3,bdb13a12c0ab493cb15560d8aabf918e,10
;Gerber Generator version 0.2
;Holesize 1 = 1.000 mm
T01C1.000
;Holesize 2 = 1.200 mm
T02C1.200
;Holesize 3 = 1.600 mm
T03C1.600
;Holesize 4 = 3.180 mm
T04C3.180
%
G05
G90
T01
X017249Y021468
X017249Y024238
X017249Y027008
X017249Y029778
X017249Y032548
X017249Y035318
X017249Y038088
X017249Y040858
X017249Y043628
X017249Y046398
X017249Y049168
X017249Y051938
X020089Y020083
X020089Y022853
X020089Y025623
X020089Y028393
X020089Y031163
X020089Y033933
X020089Y036703
X020089Y039473
X020089Y042243
X020089Y045013
X020089Y047783
X020089Y050553
X020089Y053323
X057170Y051800
X059670Y049800
X057170Y023860
X059670Y021860
T02
X106885Y055835
X104485Y055835
X094985Y055835
X092585Y055835
X099735Y062335
X106885Y020275
X104485Y020275
X094985Y020275
X092585Y020275
X099735Y026775
T03
X091235Y066085
X103485Y060535
X095985Y060535
X091235Y030525
X103485Y024975
X095985Y024975
T04
X018669Y060223
X018669Y013183
M30
