M48
METRIC,LZ,000.000
;FILE_FORMAT=3:3
;TYPE=PLATED
;Layer: PTH_Through_Via
;EasyEDA v6.5.22, 2023-02-28 17:33:46
;2c88ebba08e7464b96183e005241c5b3,bdb13a12c0ab493cb15560d8aabf918e,10
;Gerber Generator version 0.2
;Holesize 1 = 0.305 mm
T01C0.305
%
G05
G90
T01
X041596Y056435
X034979Y049067
X038306Y045977
X059790Y020334
X038757Y025503
X040267Y054354
X038868Y049600
X038755Y014040
X039367Y020868
X046140Y053112
X039445Y017224
X040621Y024060
X042218Y060320
X042405Y022460
X042399Y021660
X028379Y029778
X041385Y025261
X033378Y044714
X040844Y055766
X042814Y050400
M30
