G04 Layer: TopSolderMaskLayer*
G04 EasyEDA v6.5.22, 2023-02-28 17:33:46*
G04 2c88ebba08e7464b96183e005241c5b3,bdb13a12c0ab493cb15560d8aabf918e,10*
G04 Gerber Generator version 0.2*
G04 Scale: 100 percent, Rotated: No, Reflected: No *
G04 Dimensions in millimeters *
G04 leading zeros omitted , absolute positions ,4 integer and 5 decimal *
%FSLAX45Y45*%
%MOMM*%

%AMMACRO1*1,1,$1,$2,$3*1,1,$1,$4,$5*1,1,$1,0-$2,0-$3*1,1,$1,0-$4,0-$5*20,1,$1,$2,$3,$4,$5,0*20,1,$1,$4,$5,0-$2,0-$3,0*20,1,$1,0-$2,0-$3,0-$4,0-$5,0*20,1,$1,0-$4,0-$5,$2,$3,0*4,1,4,$2,$3,$4,$5,0-$2,0-$3,0-$4,0-$5,$2,$3,0*%
%ADD10C,5.1016*%
%ADD11C,1.7016*%
%ADD12MACRO1,0.1016X0.8X0.8X0.8X-0.8*%
%ADD13C,2.5016*%
%ADD14C,2.1016*%
%ADD15MACRO1,0.1016X-0.4X-0.325X-0.4X0.325*%
%ADD16MACRO1,0.1016X-0.4X-0.25X-0.4X0.25*%

%LPD*%
D10*
G01*
X1866900Y6022289D03*
G01*
X1866900Y1318310D03*
D11*
G01*
X1724913Y2146807D03*
G01*
X1724913Y2423795D03*
G01*
X1724913Y2700807D03*
G01*
X1724913Y2977794D03*
G01*
X1724913Y3254806D03*
G01*
X1724913Y3531793D03*
G01*
X1724913Y3808806D03*
G01*
X1724913Y4085793D03*
G01*
X1724913Y4362805D03*
G01*
X1724913Y4639792D03*
G01*
X1724913Y4916804D03*
G01*
X1724913Y5193792D03*
D12*
G01*
X2008898Y2008301D03*
D11*
G01*
X2008911Y2285314D03*
G01*
X2008911Y2562301D03*
G01*
X2008911Y2839313D03*
G01*
X2008911Y3116300D03*
G01*
X2008911Y3393287D03*
G01*
X2008911Y3670300D03*
G01*
X2008911Y3947312D03*
G01*
X2008911Y4224299D03*
G01*
X2008911Y4501311D03*
G01*
X2008911Y4778298D03*
G01*
X2008911Y5055285D03*
G01*
X2008911Y5332298D03*
D13*
G01*
X9123502Y6608495D03*
D14*
G01*
X10688523Y5583504D03*
G01*
X10448518Y5583504D03*
G01*
X9498507Y5583504D03*
G01*
X9258503Y5583504D03*
D13*
G01*
X10348518Y6053505D03*
G01*
X9598507Y6053505D03*
D14*
G01*
X9973513Y6233515D03*
D13*
G01*
X9123502Y3052495D03*
D14*
G01*
X10688523Y2027504D03*
G01*
X10448518Y2027504D03*
G01*
X9498507Y2027504D03*
G01*
X9258503Y2027504D03*
D13*
G01*
X10348518Y2497505D03*
G01*
X9598507Y2497505D03*
D14*
G01*
X9973513Y2677515D03*
D11*
G01*
X5717006Y5179999D03*
G01*
X5966993Y4980000D03*
G01*
X5717006Y2385999D03*
G01*
X5966993Y2186000D03*
D15*
G01*
X3974002Y1643989D03*
G01*
X4153997Y1643989D03*
D16*
G01*
X3974002Y1564005D03*
G01*
X4153997Y1564005D03*
G01*
X3974002Y1483994D03*
G01*
X4153997Y1483994D03*
D15*
G01*
X3974002Y1404010D03*
G01*
X4153997Y1404010D03*
G01*
X3974002Y2405989D03*
G01*
X4153997Y2405989D03*
D16*
G01*
X3974002Y2326005D03*
G01*
X4153997Y2326005D03*
G01*
X3974002Y2245994D03*
G01*
X4153997Y2245994D03*
D15*
G01*
X3974002Y2166010D03*
G01*
X4153997Y2166010D03*
G01*
X3974002Y5199989D03*
G01*
X4153997Y5199989D03*
D16*
G01*
X3974002Y5120005D03*
G01*
X4153997Y5120005D03*
G01*
X3974002Y5039994D03*
G01*
X4153997Y5039994D03*
D15*
G01*
X3974002Y4960010D03*
G01*
X4153997Y4960010D03*
G01*
X3974002Y5961989D03*
G01*
X4153997Y5961989D03*
D16*
G01*
X3974002Y5882005D03*
G01*
X4153997Y5882005D03*
G01*
X3974002Y5801994D03*
G01*
X4153997Y5801994D03*
D15*
G01*
X3974002Y5722010D03*
G01*
X4153997Y5722010D03*
M02*
