G04 Layer: BottomLayer*
G04 EasyEDA v6.5.22, 2023-02-28 17:33:46*
G04 2c88ebba08e7464b96183e005241c5b3,bdb13a12c0ab493cb15560d8aabf918e,10*
G04 Gerber Generator version 0.2*
G04 Scale: 100 percent, Rotated: No, Reflected: No *
G04 Dimensions in millimeters *
G04 leading zeros omitted , absolute positions ,4 integer and 5 decimal *
%FSLAX45Y45*%
%MOMM*%

%ADD10C,0.2540*%
%ADD11C,5.0000*%
%ADD12C,1.6000*%
%ADD13R,1.6000X1.6000*%
%ADD14C,2.4000*%
%ADD15C,2.0000*%
%ADD16C,0.6096*%

%LPD*%
D10*
X9785151Y3052488D02*
G01*
X9123481Y3052488D01*
X10448498Y2027496D02*
G01*
X10150988Y2325006D01*
X10150988Y2686651D01*
X9785151Y3052488D01*
X9785151Y4920150D02*
G01*
X9727239Y4920150D01*
X9123481Y5523908D01*
X9123481Y6608488D01*
X9785151Y3052488D02*
G01*
X9785151Y4920150D01*
X9785151Y4920150D02*
G01*
X10448498Y5583496D01*
X1724893Y5193784D02*
G01*
X1724893Y5143009D01*
X2008891Y4859012D01*
X2008891Y4778291D01*
X2008891Y4778291D02*
G01*
X2008891Y4654161D01*
X1724893Y4370163D01*
X1724893Y4362797D01*
X1724893Y4362797D02*
G01*
X1724893Y4312023D01*
X2008891Y4028025D01*
X2008891Y3947304D01*
X2008891Y3947304D02*
G01*
X2008891Y3823149D01*
X1724893Y3539152D01*
X1724893Y3531786D01*
X1724893Y3531786D02*
G01*
X1724893Y3481011D01*
X2008891Y3197014D01*
X2008891Y3116292D01*
X2008891Y3116292D02*
G01*
X2008891Y3035571D01*
X1724893Y2751574D01*
X1724893Y2700799D01*
X1724893Y2700799D02*
G01*
X1724893Y2620078D01*
X2008891Y2336081D01*
X2008891Y2285306D01*
X2008891Y4224291D02*
G01*
X3888364Y6103764D01*
X4253006Y6103764D01*
X4281378Y6075392D01*
X4281378Y5039987D01*
X3337819Y4471408D02*
G01*
X3337819Y4830005D01*
X4084401Y5576587D01*
X2837870Y2977786D02*
G01*
X3323950Y2491706D01*
X4104111Y2491706D01*
X4138503Y2526098D01*
X1724893Y2146800D02*
G01*
X4220672Y2146800D01*
X4239874Y2166002D01*
X2008891Y2562293D02*
G01*
X2325197Y2245987D01*
X4240458Y2245987D01*
X9598487Y2497498D02*
G01*
X9258482Y2157493D01*
X9258482Y2027496D01*
X4062100Y2405981D02*
G01*
X4077035Y2420917D01*
X4165859Y2420917D01*
X4923972Y3179030D02*
G01*
X4165859Y2420917D01*
X5717011Y2385992D02*
G01*
X4923972Y3179030D01*
X3944548Y1722391D02*
G01*
X4300377Y2078220D01*
X4300377Y2286398D01*
X4165859Y2420917D01*
X4923972Y3179030D02*
G01*
X4221815Y3881188D01*
X4221815Y6031958D01*
X9973492Y2677507D02*
G01*
X9973492Y2502501D01*
X9498487Y2027496D01*
X5966998Y2185992D02*
G01*
X5966998Y3958175D01*
X4614016Y5311157D01*
X9598487Y6053498D02*
G01*
X9258482Y5713493D01*
X9258482Y5583496D01*
X3875486Y1404002D02*
G01*
X3875486Y2025616D01*
X3936674Y2086805D01*
X4026743Y5435414D02*
G01*
X3886789Y5295460D01*
X3886789Y4960002D01*
X3875664Y2550253D02*
G01*
X3889151Y2563741D01*
X3889151Y4957640D01*
X3886789Y4960002D01*
X9973492Y6233507D02*
G01*
X9973492Y6058501D01*
X9498487Y5583496D01*
X5966998Y4979992D02*
G01*
X6085133Y4861857D01*
X6085133Y2139586D01*
X5978961Y2033414D01*
X3830604Y4597697D02*
G01*
X3806957Y4597697D01*
X3497940Y4906713D01*
X2008891Y3670292D02*
G01*
X3982090Y5643491D01*
X4159585Y5643491D01*
X4159585Y5643516D01*
D11*
G01*
X1866900Y6022289D03*
G01*
X1866900Y1318310D03*
D12*
G01*
X1724913Y2146807D03*
G01*
X1724913Y2423795D03*
G01*
X1724913Y2700807D03*
G01*
X1724913Y2977794D03*
G01*
X1724913Y3254806D03*
G01*
X1724913Y3531793D03*
G01*
X1724913Y3808806D03*
G01*
X1724913Y4085793D03*
G01*
X1724913Y4362805D03*
G01*
X1724913Y4639792D03*
G01*
X1724913Y4916804D03*
G01*
X1724913Y5193792D03*
D13*
G01*
X2008911Y2008301D03*
D12*
G01*
X2008911Y2285314D03*
G01*
X2008911Y2562301D03*
G01*
X2008911Y2839313D03*
G01*
X2008911Y3116300D03*
G01*
X2008911Y3393287D03*
G01*
X2008911Y3670300D03*
G01*
X2008911Y3947312D03*
G01*
X2008911Y4224299D03*
G01*
X2008911Y4501311D03*
G01*
X2008911Y4778298D03*
G01*
X2008911Y5055285D03*
G01*
X2008911Y5332298D03*
D14*
G01*
X9123502Y6608495D03*
D15*
G01*
X10688523Y5583504D03*
G01*
X10448518Y5583504D03*
G01*
X9498507Y5583504D03*
G01*
X9258503Y5583504D03*
D14*
G01*
X10348518Y6053505D03*
G01*
X9598507Y6053505D03*
D15*
G01*
X9973513Y6233515D03*
D14*
G01*
X9123502Y3052495D03*
D15*
G01*
X10688523Y2027504D03*
G01*
X10448518Y2027504D03*
G01*
X9498507Y2027504D03*
G01*
X9258503Y2027504D03*
D14*
G01*
X10348518Y2497505D03*
G01*
X9598507Y2497505D03*
D15*
G01*
X9973513Y2677515D03*
D12*
G01*
X5717006Y5179999D03*
G01*
X5966993Y4980000D03*
G01*
X5717006Y2385999D03*
G01*
X5966993Y2186000D03*
D16*
G01*
X4159580Y5643524D03*
G01*
X3497935Y4906721D03*
G01*
X3830599Y4597704D03*
G01*
X5978956Y2033422D03*
G01*
X3875659Y2550261D03*
G01*
X4026738Y5435422D03*
G01*
X3886784Y4960010D03*
G01*
X3875481Y1404010D03*
G01*
X3936669Y2086813D03*
G01*
X4614011Y5311165D03*
G01*
X3944543Y1722399D03*
G01*
X4062095Y2405989D03*
G01*
X4221810Y6031966D03*
G01*
X4240453Y2245995D03*
G01*
X4239869Y2166010D03*
G01*
X2837865Y2977794D03*
G01*
X4138498Y2526106D03*
G01*
X3337813Y4471415D03*
G01*
X4084396Y5576595D03*
G01*
X4281373Y5039995D03*
M02*
