G04 Layer: TopSilkscreenLayer*
G04 EasyEDA v6.5.22, 2023-02-28 17:33:46*
G04 2c88ebba08e7464b96183e005241c5b3,bdb13a12c0ab493cb15560d8aabf918e,10*
G04 Gerber Generator version 0.2*
G04 Scale: 100 percent, Rotated: No, Reflected: No *
G04 Dimensions in millimeters *
G04 leading zeros omitted , absolute positions ,4 integer and 5 decimal *
%FSLAX45Y45*%
%MOMM*%

%ADD10C,0.1524*%
%ADD11C,0.2032*%
%ADD12C,0.2540*%
%ADD13C,0.2000*%

%LPD*%
G36*
X7130796Y555498D02*
G01*
X7130796Y417068D01*
X7147052Y417068D01*
X7147052Y476504D01*
X7155230Y483260D01*
X7163104Y488188D01*
X7170572Y491235D01*
X7177786Y492251D01*
X7183018Y491896D01*
X7187742Y490880D01*
X7191857Y489153D01*
X7195515Y486867D01*
X7198664Y483971D01*
X7201306Y480517D01*
X7203541Y476554D01*
X7205268Y472084D01*
X7206589Y467156D01*
X7207554Y461873D01*
X7208113Y456133D01*
X7208266Y450088D01*
X7207961Y443382D01*
X7207148Y437134D01*
X7205776Y431393D01*
X7203948Y426110D01*
X7201611Y421385D01*
X7198918Y417220D01*
X7195769Y413613D01*
X7192264Y410616D01*
X7188453Y408279D01*
X7184288Y406552D01*
X7179919Y405485D01*
X7175246Y405130D01*
X7169048Y405739D01*
X7162088Y407771D01*
X7154672Y411429D01*
X7147052Y417068D01*
X7130796Y417068D01*
X7130796Y393700D01*
X7143750Y393700D01*
X7145528Y405130D01*
X7146036Y405130D01*
X7153605Y399186D01*
X7161580Y394817D01*
X7169708Y392074D01*
X7177531Y391160D01*
X7182256Y391414D01*
X7186879Y392176D01*
X7191400Y393395D01*
X7195769Y395122D01*
X7199934Y397306D01*
X7203897Y399948D01*
X7207605Y403098D01*
X7211059Y406654D01*
X7214209Y410667D01*
X7217054Y415086D01*
X7219543Y419963D01*
X7221626Y425246D01*
X7223302Y430936D01*
X7224522Y436981D01*
X7225284Y443484D01*
X7225538Y450342D01*
X7225385Y456539D01*
X7224826Y462432D01*
X7223963Y468020D01*
X7222693Y473303D01*
X7221118Y478282D01*
X7219188Y482854D01*
X7216952Y487121D01*
X7214311Y490931D01*
X7211415Y494385D01*
X7208113Y497433D01*
X7204506Y500075D01*
X7200595Y502259D01*
X7196328Y503935D01*
X7191705Y505206D01*
X7186828Y505968D01*
X7181596Y506222D01*
X7176922Y505917D01*
X7172299Y504951D01*
X7167727Y503529D01*
X7163206Y501599D01*
X7158736Y499262D01*
X7154468Y496570D01*
X7146290Y490474D01*
X7147052Y510540D01*
X7147052Y555498D01*
G37*
G36*
X7255509Y555498D02*
G01*
X7255509Y413766D01*
X7256525Y404114D01*
X7259726Y397052D01*
X7265263Y392633D01*
X7273290Y391160D01*
X7279081Y391515D01*
X7283196Y392430D01*
X7280909Y405384D01*
X7278624Y404926D01*
X7277100Y404876D01*
X7275017Y405333D01*
X7273442Y406704D01*
X7272375Y409041D01*
X7272020Y412496D01*
X7272020Y555498D01*
G37*
G36*
X8619744Y555498D02*
G01*
X8619744Y512318D01*
X8620506Y493268D01*
X8613241Y498703D01*
X8605926Y502818D01*
X8598001Y505358D01*
X8589010Y506222D01*
X8584336Y505968D01*
X8579764Y505206D01*
X8575243Y503935D01*
X8570925Y502158D01*
X8566810Y499973D01*
X8562848Y497281D01*
X8559139Y494182D01*
X8555685Y490626D01*
X8552535Y486664D01*
X8549741Y482346D01*
X8547252Y477570D01*
X8545169Y472490D01*
X8543493Y467004D01*
X8542274Y461162D01*
X8541512Y455015D01*
X8541258Y448564D01*
X8558530Y448564D01*
X8558834Y454812D01*
X8559698Y460705D01*
X8561070Y466191D01*
X8563000Y471271D01*
X8565337Y475894D01*
X8568131Y480009D01*
X8571280Y483616D01*
X8574836Y486613D01*
X8578697Y489051D01*
X8582812Y490778D01*
X8587181Y491896D01*
X8591804Y492251D01*
X8598763Y491540D01*
X8605570Y489407D01*
X8612530Y485597D01*
X8619744Y480059D01*
X8619744Y420624D01*
X8612530Y413918D01*
X8605266Y409092D01*
X8597798Y406146D01*
X8590026Y405130D01*
X8585200Y405485D01*
X8580729Y406501D01*
X8576665Y408127D01*
X8572957Y410413D01*
X8569655Y413308D01*
X8566759Y416763D01*
X8564270Y420776D01*
X8562238Y425348D01*
X8560612Y430428D01*
X8559495Y436016D01*
X8558784Y442061D01*
X8558530Y448564D01*
X8541258Y448564D01*
X8541461Y441858D01*
X8542070Y435508D01*
X8543086Y429564D01*
X8544458Y424078D01*
X8546236Y418947D01*
X8548370Y414223D01*
X8550808Y409905D01*
X8553602Y406044D01*
X8556752Y402590D01*
X8560155Y399592D01*
X8563914Y397052D01*
X8567928Y394970D01*
X8572246Y393293D01*
X8576818Y392125D01*
X8581644Y391414D01*
X8586724Y391160D01*
X8591600Y391464D01*
X8596376Y392430D01*
X8600948Y393852D01*
X8605316Y395782D01*
X8609482Y398119D01*
X8613444Y400812D01*
X8617102Y403758D01*
X8620506Y406908D01*
X8621268Y406908D01*
X8622538Y393700D01*
X8636254Y393700D01*
X8636254Y555498D01*
G37*
G36*
X7320534Y549656D02*
G01*
X7315809Y548894D01*
X7312101Y546658D01*
X7309713Y543102D01*
X7308850Y538480D01*
X7309713Y533704D01*
X7312101Y530098D01*
X7315809Y527812D01*
X7320534Y527050D01*
X7325004Y527812D01*
X7328611Y530098D01*
X7331049Y533704D01*
X7331964Y538480D01*
X7331049Y543102D01*
X7328611Y546658D01*
X7325004Y548894D01*
G37*
G36*
X8084820Y549656D02*
G01*
X8079994Y548894D01*
X8076336Y546658D01*
X8073948Y543102D01*
X8073136Y538480D01*
X8073948Y533704D01*
X8076336Y530098D01*
X8079994Y527812D01*
X8084820Y527050D01*
X8089239Y527812D01*
X8092795Y530098D01*
X8095132Y533704D01*
X8095996Y538480D01*
X8095132Y543102D01*
X8092795Y546658D01*
X8089239Y548894D01*
G37*
G36*
X8682990Y549656D02*
G01*
X8678265Y548894D01*
X8674557Y546658D01*
X8672169Y543102D01*
X8671306Y538480D01*
X8672169Y533704D01*
X8674557Y530098D01*
X8678265Y527812D01*
X8682990Y527050D01*
X8687460Y527812D01*
X8691067Y530098D01*
X8693505Y533704D01*
X8694420Y538480D01*
X8693505Y543102D01*
X8691067Y546658D01*
X8687460Y548894D01*
G37*
G36*
X9023604Y549656D02*
G01*
X9018930Y548894D01*
X9015323Y546658D01*
X9012986Y543102D01*
X9012174Y538480D01*
X9012986Y533704D01*
X9015323Y530098D01*
X9018930Y527812D01*
X9023604Y527050D01*
X9028176Y527812D01*
X9031782Y530098D01*
X9034170Y533704D01*
X9035034Y538480D01*
X9034170Y543102D01*
X9031782Y546658D01*
X9028176Y548894D01*
G37*
G36*
X3752342Y545084D02*
G01*
X3747160Y544779D01*
X3742283Y543915D01*
X3737660Y542442D01*
X3733292Y540410D01*
X3729228Y537718D01*
X3725468Y534466D01*
X3722065Y530656D01*
X3718915Y526186D01*
X3716121Y521157D01*
X3713632Y515467D01*
X3711549Y509219D01*
X3709822Y502310D01*
X3708450Y494842D01*
X3707434Y486714D01*
X3706825Y477977D01*
X3706622Y468630D01*
X3722624Y468630D01*
X3722878Y478993D01*
X3723589Y488391D01*
X3724757Y496773D01*
X3726383Y504240D01*
X3728415Y510793D01*
X3730802Y516432D01*
X3733596Y521106D01*
X3736746Y524967D01*
X3740200Y527862D01*
X3743960Y529996D01*
X3748024Y531215D01*
X3752342Y531622D01*
X3756609Y531215D01*
X3760571Y529996D01*
X3764279Y527862D01*
X3767683Y524967D01*
X3770782Y521106D01*
X3773525Y516432D01*
X3775913Y510793D01*
X3777894Y504240D01*
X3779469Y496773D01*
X3780586Y488391D01*
X3781298Y478993D01*
X3781551Y468630D01*
X3781298Y458063D01*
X3780586Y448513D01*
X3779469Y439928D01*
X3777894Y432308D01*
X3775913Y425653D01*
X3773525Y419912D01*
X3770782Y415137D01*
X3767683Y411226D01*
X3764279Y408178D01*
X3760571Y406044D01*
X3756609Y404774D01*
X3752342Y404368D01*
X3748024Y404774D01*
X3743960Y406044D01*
X3740200Y408178D01*
X3736746Y411226D01*
X3733596Y415137D01*
X3730802Y419912D01*
X3728415Y425653D01*
X3726383Y432308D01*
X3724757Y439928D01*
X3723589Y448513D01*
X3722878Y458063D01*
X3722624Y468630D01*
X3706622Y468630D01*
X3706825Y459181D01*
X3707434Y450342D01*
X3708450Y442163D01*
X3709822Y434543D01*
X3711549Y427583D01*
X3713632Y421233D01*
X3716121Y415493D01*
X3718915Y410362D01*
X3722065Y405841D01*
X3725468Y401929D01*
X3729228Y398627D01*
X3733292Y395935D01*
X3737660Y393852D01*
X3742283Y392328D01*
X3747160Y391464D01*
X3752342Y391160D01*
X3757422Y391464D01*
X3762248Y392328D01*
X3766820Y393852D01*
X3771087Y395935D01*
X3775100Y398627D01*
X3778808Y401929D01*
X3782212Y405841D01*
X3785311Y410362D01*
X3788105Y415493D01*
X3790543Y421233D01*
X3792626Y427583D01*
X3794404Y434543D01*
X3795776Y442163D01*
X3796741Y450342D01*
X3797350Y459181D01*
X3797554Y468630D01*
X3797350Y477977D01*
X3796741Y486714D01*
X3795776Y494842D01*
X3794404Y502310D01*
X3792626Y509219D01*
X3790543Y515467D01*
X3788105Y521157D01*
X3785311Y526186D01*
X3782212Y530656D01*
X3778808Y534466D01*
X3775100Y537718D01*
X3771087Y540410D01*
X3766820Y542442D01*
X3762248Y543915D01*
X3757422Y544779D01*
G37*
G36*
X6197854Y545084D02*
G01*
X6192316Y544880D01*
X6186881Y544220D01*
X6181648Y543153D01*
X6176619Y541680D01*
X6171793Y539750D01*
X6167170Y537464D01*
X6162802Y534822D01*
X6158636Y531723D01*
X6154724Y528320D01*
X6151118Y524510D01*
X6147765Y520344D01*
X6144717Y515823D01*
X6141974Y510997D01*
X6139586Y505815D01*
X6137503Y500278D01*
X6135776Y494487D01*
X6134404Y488340D01*
X6133388Y481888D01*
X6132779Y475132D01*
X6132576Y468122D01*
X6132779Y461009D01*
X6133388Y454253D01*
X6134354Y447751D01*
X6135674Y441604D01*
X6137402Y435762D01*
X6139434Y430225D01*
X6141821Y425043D01*
X6144514Y420166D01*
X6147511Y415696D01*
X6150762Y411530D01*
X6154318Y407771D01*
X6158128Y404368D01*
X6162192Y401320D01*
X6166510Y398678D01*
X6171031Y396392D01*
X6175806Y394512D01*
X6180734Y393090D01*
X6185865Y392023D01*
X6191148Y391363D01*
X6196584Y391160D01*
X6203594Y391515D01*
X6210198Y392582D01*
X6216345Y394309D01*
X6222136Y396697D01*
X6227572Y399694D01*
X6232652Y403352D01*
X6237376Y407619D01*
X6241796Y412496D01*
X6232652Y422909D01*
X6228892Y419049D01*
X6224981Y415645D01*
X6220968Y412750D01*
X6216700Y410311D01*
X6212281Y408381D01*
X6207556Y407009D01*
X6202629Y406196D01*
X6197346Y405892D01*
X6192012Y406196D01*
X6186932Y407009D01*
X6182106Y408381D01*
X6177584Y410260D01*
X6173368Y412648D01*
X6169507Y415543D01*
X6165900Y418896D01*
X6162649Y422757D01*
X6159754Y427024D01*
X6157163Y431749D01*
X6154978Y436880D01*
X6153150Y442417D01*
X6151727Y448360D01*
X6150711Y454659D01*
X6150051Y461365D01*
X6149848Y468376D01*
X6150051Y475386D01*
X6150711Y482041D01*
X6151778Y488340D01*
X6153302Y494233D01*
X6155182Y499770D01*
X6157417Y504850D01*
X6160058Y509524D01*
X6163005Y513740D01*
X6166358Y517550D01*
X6170015Y520852D01*
X6173978Y523697D01*
X6178245Y526084D01*
X6182817Y527913D01*
X6187643Y529285D01*
X6192774Y530098D01*
X6198108Y530352D01*
X6207302Y529285D01*
X6215481Y526389D01*
X6222644Y521868D01*
X6228842Y516128D01*
X6238240Y527050D01*
X6234785Y530504D01*
X6230823Y533857D01*
X6226403Y536905D01*
X6221577Y539597D01*
X6216294Y541832D01*
X6210554Y543610D01*
X6204407Y544677D01*
G37*
G36*
X6320536Y545084D02*
G01*
X6314998Y544880D01*
X6309563Y544220D01*
X6304330Y543153D01*
X6299301Y541680D01*
X6294475Y539750D01*
X6289852Y537464D01*
X6285484Y534822D01*
X6281318Y531723D01*
X6277406Y528320D01*
X6273800Y524510D01*
X6270447Y520344D01*
X6267399Y515823D01*
X6264656Y510997D01*
X6262268Y505815D01*
X6260185Y500278D01*
X6258458Y494487D01*
X6257086Y488340D01*
X6256070Y481888D01*
X6255461Y475132D01*
X6255258Y468122D01*
X6255461Y461009D01*
X6256070Y454253D01*
X6257036Y447751D01*
X6258356Y441604D01*
X6260084Y435762D01*
X6262116Y430225D01*
X6264503Y425043D01*
X6267196Y420166D01*
X6270193Y415696D01*
X6273444Y411530D01*
X6277000Y407771D01*
X6280810Y404368D01*
X6284874Y401320D01*
X6289192Y398678D01*
X6293713Y396392D01*
X6298488Y394512D01*
X6303416Y393090D01*
X6308547Y392023D01*
X6313830Y391363D01*
X6319266Y391160D01*
X6326276Y391515D01*
X6332880Y392582D01*
X6339078Y394309D01*
X6344869Y396697D01*
X6350304Y399694D01*
X6355435Y403352D01*
X6360210Y407619D01*
X6364732Y412496D01*
X6355334Y422909D01*
X6351574Y419049D01*
X6347663Y415645D01*
X6343650Y412750D01*
X6339382Y410311D01*
X6334963Y408381D01*
X6330238Y407009D01*
X6325311Y406196D01*
X6320028Y405892D01*
X6314694Y406196D01*
X6309614Y407009D01*
X6304788Y408381D01*
X6300266Y410260D01*
X6296050Y412648D01*
X6292189Y415543D01*
X6288582Y418896D01*
X6285331Y422757D01*
X6282436Y427024D01*
X6279845Y431749D01*
X6277660Y436880D01*
X6275832Y442417D01*
X6274409Y448360D01*
X6273393Y454659D01*
X6272733Y461365D01*
X6272530Y468376D01*
X6272733Y475386D01*
X6273393Y482041D01*
X6274460Y488340D01*
X6275984Y494233D01*
X6277864Y499770D01*
X6280099Y504850D01*
X6282740Y509524D01*
X6285687Y513740D01*
X6289040Y517550D01*
X6292697Y520852D01*
X6296660Y523697D01*
X6300927Y526084D01*
X6305499Y527913D01*
X6310325Y529285D01*
X6315456Y530098D01*
X6320790Y530352D01*
X6329984Y529285D01*
X6338163Y526389D01*
X6345326Y521868D01*
X6351524Y516128D01*
X6360922Y527050D01*
X6357518Y530504D01*
X6353606Y533857D01*
X6349238Y536905D01*
X6344361Y539597D01*
X6339027Y541832D01*
X6333286Y543610D01*
X6327089Y544677D01*
G37*
G36*
X6427978Y545084D02*
G01*
X6422847Y544779D01*
X6417970Y543915D01*
X6413398Y542442D01*
X6409029Y540410D01*
X6405016Y537718D01*
X6401257Y534466D01*
X6397802Y530656D01*
X6394653Y526186D01*
X6391808Y521157D01*
X6389370Y515467D01*
X6387236Y509219D01*
X6385458Y502310D01*
X6384086Y494842D01*
X6383070Y486714D01*
X6382461Y477977D01*
X6382258Y468630D01*
X6398260Y468630D01*
X6398514Y478993D01*
X6399225Y488391D01*
X6400444Y496773D01*
X6402070Y504240D01*
X6404102Y510793D01*
X6406540Y516432D01*
X6409334Y521106D01*
X6412484Y524967D01*
X6415938Y527862D01*
X6419697Y529996D01*
X6423710Y531215D01*
X6427978Y531622D01*
X6432245Y531215D01*
X6436207Y529996D01*
X6439916Y527862D01*
X6443319Y524967D01*
X6446418Y521106D01*
X6449161Y516432D01*
X6451549Y510793D01*
X6453530Y504240D01*
X6455105Y496773D01*
X6456222Y488391D01*
X6456934Y478993D01*
X6457188Y468630D01*
X6456934Y458063D01*
X6456222Y448513D01*
X6455105Y439928D01*
X6453530Y432308D01*
X6451549Y425653D01*
X6449161Y419912D01*
X6446418Y415137D01*
X6443319Y411226D01*
X6439916Y408178D01*
X6436207Y406044D01*
X6432245Y404774D01*
X6427978Y404368D01*
X6423710Y404774D01*
X6419697Y406044D01*
X6415938Y408178D01*
X6412484Y411226D01*
X6409334Y415137D01*
X6406540Y419912D01*
X6404102Y425653D01*
X6402070Y432308D01*
X6400444Y439928D01*
X6399225Y448513D01*
X6398514Y458063D01*
X6398260Y468630D01*
X6382258Y468630D01*
X6382461Y459181D01*
X6383070Y450342D01*
X6384086Y442163D01*
X6385458Y434543D01*
X6387236Y427583D01*
X6389370Y421233D01*
X6391808Y415493D01*
X6394653Y410362D01*
X6397802Y405841D01*
X6401257Y401929D01*
X6405016Y398627D01*
X6409029Y395935D01*
X6413398Y393852D01*
X6417970Y392328D01*
X6422847Y391464D01*
X6427978Y391160D01*
X6433108Y391464D01*
X6437934Y392328D01*
X6442557Y393852D01*
X6446875Y395935D01*
X6450888Y398627D01*
X6454648Y401929D01*
X6458051Y405841D01*
X6461201Y410362D01*
X6463995Y415493D01*
X6466433Y421233D01*
X6468516Y427583D01*
X6470294Y434543D01*
X6471666Y442163D01*
X6472631Y450342D01*
X6473240Y459181D01*
X6473444Y468630D01*
X6473240Y477977D01*
X6472631Y486714D01*
X6471666Y494842D01*
X6470294Y502310D01*
X6468516Y509219D01*
X6466433Y515467D01*
X6463995Y521157D01*
X6461201Y526186D01*
X6458051Y530656D01*
X6454648Y534466D01*
X6450888Y537718D01*
X6446875Y540410D01*
X6442557Y542442D01*
X6437934Y543915D01*
X6433108Y544779D01*
G37*
G36*
X6751320Y545084D02*
G01*
X6746189Y544779D01*
X6741312Y543915D01*
X6736740Y542442D01*
X6732371Y540410D01*
X6728358Y537718D01*
X6724599Y534466D01*
X6721144Y530656D01*
X6717995Y526186D01*
X6715150Y521157D01*
X6712712Y515467D01*
X6710578Y509219D01*
X6708800Y502310D01*
X6707428Y494842D01*
X6706412Y486714D01*
X6705803Y477977D01*
X6705600Y468630D01*
X6721602Y468630D01*
X6721856Y478993D01*
X6722567Y488391D01*
X6723735Y496773D01*
X6725361Y504240D01*
X6727393Y510793D01*
X6729780Y516432D01*
X6732574Y521106D01*
X6735724Y524967D01*
X6739178Y527862D01*
X6742938Y529996D01*
X6747002Y531215D01*
X6751320Y531622D01*
X6755587Y531215D01*
X6759549Y529996D01*
X6763258Y527862D01*
X6766661Y524967D01*
X6769760Y521106D01*
X6772503Y516432D01*
X6774891Y510793D01*
X6776872Y504240D01*
X6778447Y496773D01*
X6779564Y488391D01*
X6780275Y478993D01*
X6780530Y468630D01*
X6780275Y458063D01*
X6779564Y448513D01*
X6778447Y439928D01*
X6776872Y432308D01*
X6774891Y425653D01*
X6772503Y419912D01*
X6769760Y415137D01*
X6766661Y411226D01*
X6763258Y408178D01*
X6759549Y406044D01*
X6755587Y404774D01*
X6751320Y404368D01*
X6747002Y404774D01*
X6742938Y406044D01*
X6739178Y408178D01*
X6735724Y411226D01*
X6732574Y415137D01*
X6729780Y419912D01*
X6727393Y425653D01*
X6725361Y432308D01*
X6723735Y439928D01*
X6722567Y448513D01*
X6721856Y458063D01*
X6721602Y468630D01*
X6705600Y468630D01*
X6705803Y459181D01*
X6706412Y450342D01*
X6707428Y442163D01*
X6708800Y434543D01*
X6710578Y427583D01*
X6712712Y421233D01*
X6715150Y415493D01*
X6717995Y410362D01*
X6721144Y405841D01*
X6724599Y401929D01*
X6728358Y398627D01*
X6732371Y395935D01*
X6736740Y393852D01*
X6741312Y392328D01*
X6746189Y391464D01*
X6751320Y391160D01*
X6756450Y391464D01*
X6761276Y392328D01*
X6765848Y393852D01*
X6770166Y395935D01*
X6774180Y398627D01*
X6777888Y401929D01*
X6781292Y405841D01*
X6784390Y410362D01*
X6787184Y415493D01*
X6789572Y421233D01*
X6791655Y427583D01*
X6793382Y434543D01*
X6794753Y442163D01*
X6795719Y450342D01*
X6796328Y459181D01*
X6796531Y468630D01*
X6796328Y477977D01*
X6795719Y486714D01*
X6794753Y494842D01*
X6793382Y502310D01*
X6791655Y509219D01*
X6789572Y515467D01*
X6787184Y521157D01*
X6784390Y526186D01*
X6781292Y530656D01*
X6777888Y534466D01*
X6774180Y537718D01*
X6770166Y540410D01*
X6765848Y542442D01*
X6761276Y543915D01*
X6756450Y544779D01*
G37*
G36*
X3115564Y542544D02*
G01*
X3115564Y528828D01*
X3158236Y528828D01*
X3166770Y528472D01*
X3174238Y527354D01*
X3180638Y525424D01*
X3185972Y522630D01*
X3190138Y518820D01*
X3193135Y514045D01*
X3194964Y508152D01*
X3195574Y501142D01*
X3194964Y494182D01*
X3193135Y488188D01*
X3190138Y483108D01*
X3185972Y478993D01*
X3180638Y475792D01*
X3174238Y473506D01*
X3166770Y472135D01*
X3158236Y471678D01*
X3132328Y471678D01*
X3132328Y528828D01*
X3115564Y528828D01*
X3115564Y393700D01*
X3132328Y393700D01*
X3132328Y457962D01*
X3160268Y457962D01*
X3197352Y393700D01*
X3216148Y393700D01*
X3177794Y459485D01*
X3182924Y460857D01*
X3187700Y462635D01*
X3192068Y464769D01*
X3196132Y467258D01*
X3199739Y470103D01*
X3202990Y473354D01*
X3205734Y477012D01*
X3208070Y481025D01*
X3209899Y485444D01*
X3211220Y490270D01*
X3212084Y495503D01*
X3212338Y501142D01*
X3211931Y508355D01*
X3210661Y514807D01*
X3208578Y520446D01*
X3205734Y525424D01*
X3202228Y529691D01*
X3198012Y533247D01*
X3193186Y536244D01*
X3187750Y538581D01*
X3181807Y540359D01*
X3175304Y541578D01*
X3168396Y542290D01*
X3161030Y542544D01*
G37*
G36*
X3585210Y542544D02*
G01*
X3579114Y539191D01*
X3572154Y536397D01*
X3564229Y534162D01*
X3555237Y532384D01*
X3555237Y521462D01*
X3581400Y521462D01*
X3581400Y407416D01*
X3548126Y407416D01*
X3548126Y393700D01*
X3628136Y393700D01*
X3628136Y407416D01*
X3597910Y407416D01*
X3597910Y542544D01*
G37*
G36*
X3828796Y542544D02*
G01*
X3828796Y529082D01*
X3869436Y529082D01*
X3877919Y528726D01*
X3885336Y527710D01*
X3891635Y525932D01*
X3896766Y523392D01*
X3900779Y519938D01*
X3903675Y515569D01*
X3905453Y510285D01*
X3906012Y503935D01*
X3905504Y498398D01*
X3903878Y493420D01*
X3901135Y489102D01*
X3897223Y485444D01*
X3892042Y482498D01*
X3885539Y480314D01*
X3877716Y478993D01*
X3868420Y478535D01*
X3845560Y478535D01*
X3845560Y529082D01*
X3828796Y529082D01*
X3828796Y465582D01*
X3872484Y465582D01*
X3878986Y465378D01*
X3884980Y464870D01*
X3890467Y463956D01*
X3895445Y462635D01*
X3899915Y460959D01*
X3903776Y458876D01*
X3907129Y456438D01*
X3909872Y453542D01*
X3912057Y450240D01*
X3913632Y446582D01*
X3914597Y442417D01*
X3914901Y437896D01*
X3914597Y432816D01*
X3913581Y428193D01*
X3912006Y424078D01*
X3909771Y420420D01*
X3906977Y417271D01*
X3903624Y414528D01*
X3899662Y412242D01*
X3895242Y410413D01*
X3890264Y408940D01*
X3884777Y407974D01*
X3878884Y407365D01*
X3872484Y407162D01*
X3845560Y407162D01*
X3845560Y465582D01*
X3828796Y465582D01*
X3828796Y393700D01*
X3875024Y393700D01*
X3881120Y393852D01*
X3887012Y394360D01*
X3892600Y395224D01*
X3897884Y396392D01*
X3902862Y397916D01*
X3907485Y399796D01*
X3911803Y402031D01*
X3915714Y404571D01*
X3919220Y407466D01*
X3922369Y410667D01*
X3925062Y414223D01*
X3927297Y418134D01*
X3929075Y422351D01*
X3930345Y426974D01*
X3931158Y431850D01*
X3931412Y437134D01*
X3930853Y444347D01*
X3929126Y450799D01*
X3926433Y456438D01*
X3922776Y461314D01*
X3918254Y465429D01*
X3912971Y468731D01*
X3907028Y471220D01*
X3900424Y472948D01*
X3900424Y473709D01*
X3905453Y475894D01*
X3909872Y478739D01*
X3913682Y482142D01*
X3916832Y486105D01*
X3919270Y490575D01*
X3921048Y495401D01*
X3922166Y500532D01*
X3922522Y505968D01*
X3922115Y512114D01*
X3920845Y517651D01*
X3918813Y522630D01*
X3916070Y526948D01*
X3912615Y530758D01*
X3908450Y533958D01*
X3903675Y536651D01*
X3898341Y538835D01*
X3892397Y540461D01*
X3885996Y541629D01*
X3879087Y542340D01*
X3871722Y542544D01*
G37*
G36*
X4152646Y542544D02*
G01*
X4122391Y453898D01*
X4138168Y453898D01*
X4153712Y502869D01*
X4161028Y528320D01*
X4162044Y528320D01*
X4169460Y502970D01*
X4177284Y478028D01*
X4185158Y453898D01*
X4122391Y453898D01*
X4101846Y393700D01*
X4118610Y393700D01*
X4133850Y440690D01*
X4189476Y440690D01*
X4204208Y393700D01*
X4221988Y393700D01*
X4171187Y542544D01*
G37*
G36*
X5384292Y542544D02*
G01*
X5384292Y528320D01*
X5457190Y528320D01*
X5376926Y403606D01*
X5376926Y393700D01*
X5478780Y393700D01*
X5478780Y407924D01*
X5397754Y407924D01*
X5477764Y532384D01*
X5477764Y542544D01*
G37*
G36*
X6584188Y542544D02*
G01*
X6578092Y539191D01*
X6571132Y536397D01*
X6563207Y534162D01*
X6554216Y532384D01*
X6554216Y521462D01*
X6580378Y521462D01*
X6580378Y407416D01*
X6547104Y407416D01*
X6547104Y393700D01*
X6627114Y393700D01*
X6627114Y407416D01*
X6596888Y407416D01*
X6596888Y542544D01*
G37*
G36*
X6882638Y542544D02*
G01*
X6882638Y528828D01*
X6921500Y528828D01*
X6928002Y528675D01*
X6933946Y528218D01*
X6939381Y527354D01*
X6944207Y526135D01*
X6948424Y524560D01*
X6952132Y522478D01*
X6955281Y519938D01*
X6957822Y516940D01*
X6959853Y513384D01*
X6961276Y509320D01*
X6962089Y504647D01*
X6962394Y499364D01*
X6962140Y494080D01*
X6961327Y489356D01*
X6959955Y485089D01*
X6958025Y481330D01*
X6955536Y478028D01*
X6952538Y475183D01*
X6948931Y472846D01*
X6944766Y470916D01*
X6939991Y469442D01*
X6934657Y468426D01*
X6928764Y467817D01*
X6922262Y467614D01*
X6899402Y467614D01*
X6899402Y528828D01*
X6882638Y528828D01*
X6882638Y393700D01*
X6899402Y393700D01*
X6899402Y453898D01*
X6930593Y454050D01*
X6936384Y454558D01*
X6941870Y455422D01*
X6947001Y456641D01*
X6951827Y458216D01*
X6956348Y460095D01*
X6960463Y462381D01*
X6964222Y465023D01*
X6967626Y468020D01*
X6970572Y471373D01*
X6973163Y475081D01*
X6975246Y479196D01*
X6976973Y483666D01*
X6978192Y488492D01*
X6978903Y493725D01*
X6979158Y499364D01*
X6978903Y505104D01*
X6978142Y510387D01*
X6976922Y515213D01*
X6975246Y519633D01*
X6973062Y523544D01*
X6970471Y527100D01*
X6967474Y530199D01*
X6964070Y532942D01*
X6960209Y535330D01*
X6956044Y537311D01*
X6951472Y538988D01*
X6946595Y540308D01*
X6941362Y541324D01*
X6935774Y541985D01*
X6929932Y542391D01*
X6923786Y542544D01*
G37*
G36*
X7516368Y542544D02*
G01*
X7516368Y528574D01*
X7551420Y528574D01*
X7558024Y528320D01*
X7564170Y527558D01*
X7569860Y526288D01*
X7575143Y524560D01*
X7580020Y522325D01*
X7584440Y519633D01*
X7588402Y516483D01*
X7591958Y512876D01*
X7595108Y508812D01*
X7597800Y504342D01*
X7600086Y499414D01*
X7601966Y494080D01*
X7603388Y488289D01*
X7604455Y482142D01*
X7605064Y475589D01*
X7605268Y468630D01*
X7605064Y461721D01*
X7604455Y455117D01*
X7603388Y448919D01*
X7601966Y443077D01*
X7600086Y437642D01*
X7597800Y432612D01*
X7595108Y427990D01*
X7591958Y423824D01*
X7588402Y420065D01*
X7584440Y416814D01*
X7580020Y413969D01*
X7575143Y411683D01*
X7569860Y409803D01*
X7564170Y408482D01*
X7558024Y407670D01*
X7551420Y407416D01*
X7533131Y407416D01*
X7533131Y528574D01*
X7516368Y528574D01*
X7516368Y393700D01*
X7553452Y393700D01*
X7560056Y393903D01*
X7566355Y394512D01*
X7572349Y395579D01*
X7577988Y397002D01*
X7583322Y398830D01*
X7588300Y401066D01*
X7592974Y403656D01*
X7597292Y406603D01*
X7601305Y409956D01*
X7604963Y413664D01*
X7608265Y417677D01*
X7611262Y422046D01*
X7613853Y426770D01*
X7616139Y431850D01*
X7618120Y437184D01*
X7619695Y442874D01*
X7620914Y448868D01*
X7621828Y455168D01*
X7622387Y461772D01*
X7622540Y468630D01*
X7622387Y475488D01*
X7621828Y482041D01*
X7620914Y488340D01*
X7619695Y494284D01*
X7618120Y499872D01*
X7616139Y505206D01*
X7613853Y510184D01*
X7611211Y514858D01*
X7608214Y519125D01*
X7604912Y523138D01*
X7601203Y526745D01*
X7597190Y529996D01*
X7592822Y532892D01*
X7588148Y535432D01*
X7583119Y537565D01*
X7577734Y539343D01*
X7572044Y540715D01*
X7565999Y541731D01*
X7559649Y542340D01*
X7552944Y542544D01*
G37*
G36*
X8300720Y542544D02*
G01*
X8300720Y528574D01*
X8335772Y528574D01*
X8342375Y528320D01*
X8348522Y527558D01*
X8354212Y526288D01*
X8359495Y524560D01*
X8364372Y522325D01*
X8368792Y519633D01*
X8372754Y516483D01*
X8376310Y512876D01*
X8379459Y508812D01*
X8382152Y504342D01*
X8384438Y499414D01*
X8386318Y494080D01*
X8387740Y488289D01*
X8388807Y482142D01*
X8389416Y475589D01*
X8389620Y468630D01*
X8389416Y461721D01*
X8388807Y455117D01*
X8387740Y448919D01*
X8386318Y443077D01*
X8384438Y437642D01*
X8382152Y432612D01*
X8379459Y427990D01*
X8376310Y423824D01*
X8372754Y420065D01*
X8368792Y416814D01*
X8364372Y413969D01*
X8359495Y411683D01*
X8354212Y409803D01*
X8348522Y408482D01*
X8342375Y407670D01*
X8335772Y407416D01*
X8317484Y407416D01*
X8317484Y528574D01*
X8300720Y528574D01*
X8300720Y393700D01*
X8337803Y393700D01*
X8344408Y393903D01*
X8350707Y394512D01*
X8356701Y395579D01*
X8362340Y397002D01*
X8367674Y398830D01*
X8372652Y401066D01*
X8377326Y403656D01*
X8381644Y406603D01*
X8385657Y409956D01*
X8389315Y413664D01*
X8392617Y417677D01*
X8395614Y422046D01*
X8398205Y426770D01*
X8400491Y431850D01*
X8402472Y437184D01*
X8404047Y442874D01*
X8405266Y448868D01*
X8406180Y455168D01*
X8406739Y461772D01*
X8406892Y468630D01*
X8406739Y475488D01*
X8406180Y482041D01*
X8405266Y488340D01*
X8404047Y494284D01*
X8402472Y499872D01*
X8400491Y505206D01*
X8398205Y510184D01*
X8395563Y514858D01*
X8392566Y519125D01*
X8389264Y523138D01*
X8385556Y526745D01*
X8381542Y529996D01*
X8377174Y532892D01*
X8372500Y535432D01*
X8367471Y537565D01*
X8362086Y539343D01*
X8356396Y540715D01*
X8350351Y541731D01*
X8344001Y542340D01*
X8337296Y542544D01*
G37*
G36*
X5159756Y534416D02*
G01*
X5157724Y503428D01*
X5140452Y502412D01*
X5140452Y489712D01*
X5156962Y489712D01*
X5156962Y426720D01*
X5157317Y419049D01*
X5158486Y412140D01*
X5160518Y406095D01*
X5163515Y400964D01*
X5167579Y396798D01*
X5172811Y393700D01*
X5179314Y391820D01*
X5187188Y391160D01*
X5191963Y391515D01*
X5196992Y392430D01*
X5206746Y395224D01*
X5203444Y407670D01*
X5200548Y406552D01*
X5197297Y405587D01*
X5193944Y404876D01*
X5190744Y404622D01*
X5182463Y406095D01*
X5177180Y410362D01*
X5174335Y417169D01*
X5173472Y426212D01*
X5173472Y489712D01*
X5203698Y489712D01*
X5203698Y503428D01*
X5173472Y503428D01*
X5173472Y534416D01*
G37*
G36*
X8946134Y534416D02*
G01*
X8944102Y503428D01*
X8926830Y502412D01*
X8926830Y489712D01*
X8943340Y489712D01*
X8943340Y426720D01*
X8943695Y419049D01*
X8944864Y412140D01*
X8946896Y406095D01*
X8949893Y400964D01*
X8954008Y396798D01*
X8959291Y393700D01*
X8965895Y391820D01*
X8973820Y391160D01*
X8978544Y391515D01*
X8983472Y392430D01*
X8993124Y395224D01*
X8990076Y407670D01*
X8983675Y405587D01*
X8980322Y404876D01*
X8977122Y404622D01*
X8968841Y406095D01*
X8963558Y410362D01*
X8960713Y417169D01*
X8959850Y426212D01*
X8959850Y489712D01*
X8990076Y489712D01*
X8990076Y503428D01*
X8959850Y503428D01*
X8959850Y534416D01*
G37*
G36*
X4811268Y513588D02*
G01*
X4715002Y475742D01*
X4715002Y462026D01*
X4811268Y424180D01*
X4811268Y438912D01*
X4732020Y468376D01*
X4732020Y469392D01*
X4762246Y480822D01*
X4811268Y498856D01*
G37*
G36*
X5217414Y513588D02*
G01*
X5217414Y498856D01*
X5266436Y480822D01*
X5296662Y469392D01*
X5296662Y468376D01*
X5217414Y438912D01*
X5217414Y424180D01*
X5313426Y462026D01*
X5313426Y475742D01*
G37*
G36*
X3279648Y506222D02*
G01*
X3274974Y505968D01*
X3270300Y505206D01*
X3265779Y503935D01*
X3261360Y502208D01*
X3257143Y500024D01*
X3253079Y497332D01*
X3249269Y494233D01*
X3245713Y490728D01*
X3242462Y486765D01*
X3239516Y482447D01*
X3236925Y477672D01*
X3234740Y472592D01*
X3233013Y467106D01*
X3231692Y461264D01*
X3231159Y457200D01*
X3246882Y457200D01*
X3248304Y465124D01*
X3250742Y472185D01*
X3254044Y478282D01*
X3258159Y483362D01*
X3262934Y487426D01*
X3268217Y490372D01*
X3273907Y492150D01*
X3279901Y492759D01*
X3286251Y492201D01*
X3291840Y490474D01*
X3296716Y487680D01*
X3300780Y483768D01*
X3304032Y478739D01*
X3306419Y472592D01*
X3307842Y465429D01*
X3308350Y457200D01*
X3231159Y457200D01*
X3230880Y455066D01*
X3230626Y448564D01*
X3230880Y441959D01*
X3231692Y435762D01*
X3232962Y429869D01*
X3234690Y424383D01*
X3236874Y419252D01*
X3239465Y414528D01*
X3242462Y410260D01*
X3245815Y406349D01*
X3249472Y402844D01*
X3253486Y399796D01*
X3257803Y397205D01*
X3262325Y395071D01*
X3267151Y393344D01*
X3272129Y392125D01*
X3277362Y391414D01*
X3282696Y391160D01*
X3288233Y391414D01*
X3293414Y392023D01*
X3298240Y393090D01*
X3302812Y394462D01*
X3307130Y396138D01*
X3311194Y398018D01*
X3318764Y402336D01*
X3312668Y413258D01*
X3306368Y409498D01*
X3299663Y406704D01*
X3292449Y404977D01*
X3284728Y404368D01*
X3279444Y404723D01*
X3274415Y405688D01*
X3269792Y407263D01*
X3265525Y409498D01*
X3261614Y412242D01*
X3258108Y415543D01*
X3255060Y419354D01*
X3252470Y423621D01*
X3250387Y428345D01*
X3248761Y433527D01*
X3247694Y439064D01*
X3247136Y445008D01*
X3322065Y445008D01*
X3322523Y447090D01*
X3322828Y452120D01*
X3322523Y462584D01*
X3321558Y469747D01*
X3319932Y476300D01*
X3317748Y482346D01*
X3314903Y487730D01*
X3311550Y492455D01*
X3307537Y496570D01*
X3303015Y499973D01*
X3297986Y502666D01*
X3292398Y504647D01*
X3286251Y505815D01*
G37*
G36*
X4288028Y506222D02*
G01*
X4281474Y505866D01*
X4275175Y504850D01*
X4269181Y503326D01*
X4263542Y501345D01*
X4258310Y499109D01*
X4253484Y496671D01*
X4245356Y491743D01*
X4251960Y480314D01*
X4258818Y484682D01*
X4266793Y488594D01*
X4275632Y491439D01*
X4285234Y492506D01*
X4291736Y491845D01*
X4296968Y489966D01*
X4301083Y487070D01*
X4304182Y483311D01*
X4306366Y478840D01*
X4307738Y473862D01*
X4308449Y468528D01*
X4308602Y463042D01*
X4292193Y460756D01*
X4284878Y459333D01*
X4278122Y457758D01*
X4271975Y455980D01*
X4266438Y454050D01*
X4261408Y451866D01*
X4256938Y449529D01*
X4253026Y446938D01*
X4249674Y444093D01*
X4246880Y441045D01*
X4244543Y437743D01*
X4242765Y434187D01*
X4241546Y430377D01*
X4240784Y426262D01*
X4240589Y422909D01*
X4256532Y422909D01*
X4256836Y426516D01*
X4257700Y429920D01*
X4259224Y433120D01*
X4261408Y436067D01*
X4264304Y438810D01*
X4268012Y441299D01*
X4272483Y443585D01*
X4277817Y445668D01*
X4284065Y447497D01*
X4291228Y449173D01*
X4299407Y450646D01*
X4308602Y451866D01*
X4308602Y419608D01*
X4300524Y413054D01*
X4292752Y408279D01*
X4284980Y405333D01*
X4276852Y404368D01*
X4268978Y405384D01*
X4262526Y408686D01*
X4258157Y414426D01*
X4256532Y422909D01*
X4240589Y422909D01*
X4240530Y421893D01*
X4241190Y414883D01*
X4243019Y408736D01*
X4245914Y403453D01*
X4249775Y399084D01*
X4254500Y395681D01*
X4259935Y393192D01*
X4265980Y391668D01*
X4272534Y391160D01*
X4277614Y391464D01*
X4282592Y392430D01*
X4287469Y393903D01*
X4292193Y395833D01*
X4296765Y398170D01*
X4301134Y400913D01*
X4305350Y403910D01*
X4309364Y407162D01*
X4310126Y407162D01*
X4311396Y393700D01*
X4325112Y393700D01*
X4325112Y461772D01*
X4324908Y468172D01*
X4324197Y474218D01*
X4323029Y479856D01*
X4321352Y485038D01*
X4319168Y489712D01*
X4316476Y493877D01*
X4313224Y497535D01*
X4309364Y500583D01*
X4304944Y502970D01*
X4299966Y504748D01*
X4294327Y505866D01*
G37*
G36*
X4407916Y506222D02*
G01*
X4403394Y505815D01*
X4399026Y504596D01*
X4394758Y502615D01*
X4390694Y499922D01*
X4386884Y496620D01*
X4383278Y492709D01*
X4379925Y488289D01*
X4376928Y483362D01*
X4376420Y483362D01*
X4374642Y503428D01*
X4361180Y503428D01*
X4361180Y393700D01*
X4377690Y393700D01*
X4377690Y465328D01*
X4380738Y471932D01*
X4384040Y477418D01*
X4387545Y481888D01*
X4391202Y485444D01*
X4394962Y488086D01*
X4398670Y489864D01*
X4402378Y490880D01*
X4405884Y491235D01*
X4411370Y490829D01*
X4416298Y489458D01*
X4419600Y503935D01*
X4416958Y505053D01*
X4414215Y505764D01*
X4411268Y506120D01*
G37*
G36*
X4478020Y506222D02*
G01*
X4473041Y505968D01*
X4468114Y505256D01*
X4463338Y504037D01*
X4458766Y502361D01*
X4454347Y500227D01*
X4450181Y497636D01*
X4446270Y494588D01*
X4442663Y491083D01*
X4439361Y487222D01*
X4436364Y482904D01*
X4433773Y478129D01*
X4431588Y472998D01*
X4429810Y467461D01*
X4428540Y461518D01*
X4427728Y455218D01*
X4427474Y448564D01*
X4444492Y448564D01*
X4444796Y454863D01*
X4445609Y460806D01*
X4446930Y466343D01*
X4448759Y471424D01*
X4451096Y475996D01*
X4453839Y480110D01*
X4456988Y483666D01*
X4460544Y486664D01*
X4464405Y489051D01*
X4468672Y490829D01*
X4473194Y491896D01*
X4478020Y492251D01*
X4482795Y491896D01*
X4487316Y490829D01*
X4491532Y489051D01*
X4495393Y486664D01*
X4498949Y483666D01*
X4502099Y480110D01*
X4504893Y475996D01*
X4507179Y471424D01*
X4509058Y466343D01*
X4510430Y460806D01*
X4511243Y454863D01*
X4511548Y448564D01*
X4511243Y442214D01*
X4510430Y436219D01*
X4509058Y430682D01*
X4507179Y425602D01*
X4504893Y420979D01*
X4502099Y416915D01*
X4498949Y413359D01*
X4495393Y410413D01*
X4491532Y408025D01*
X4487316Y406298D01*
X4482795Y405231D01*
X4478020Y404876D01*
X4473194Y405231D01*
X4468672Y406298D01*
X4464405Y408025D01*
X4460544Y410413D01*
X4456988Y413359D01*
X4453839Y416915D01*
X4451096Y420979D01*
X4448759Y425602D01*
X4446930Y430682D01*
X4445609Y436219D01*
X4444796Y442214D01*
X4444492Y448564D01*
X4427474Y448564D01*
X4427728Y441909D01*
X4428540Y435660D01*
X4429810Y429768D01*
X4431588Y424281D01*
X4433773Y419150D01*
X4436364Y414426D01*
X4439361Y410108D01*
X4442663Y406247D01*
X4446270Y402793D01*
X4450181Y399745D01*
X4454347Y397154D01*
X4458766Y395020D01*
X4463338Y393344D01*
X4468114Y392125D01*
X4473041Y391414D01*
X4478020Y391160D01*
X4482998Y391414D01*
X4487875Y392125D01*
X4492599Y393344D01*
X4497171Y395020D01*
X4501540Y397154D01*
X4505756Y399745D01*
X4509668Y402793D01*
X4513275Y406247D01*
X4516628Y410108D01*
X4519625Y414426D01*
X4522216Y419150D01*
X4524400Y424281D01*
X4526178Y429768D01*
X4527499Y435660D01*
X4528312Y441909D01*
X4528566Y448564D01*
X4528312Y455218D01*
X4527499Y461518D01*
X4526178Y467461D01*
X4524400Y472998D01*
X4522216Y478129D01*
X4519625Y482904D01*
X4516628Y487222D01*
X4513275Y491134D01*
X4509668Y494588D01*
X4505756Y497636D01*
X4501540Y500227D01*
X4497171Y502361D01*
X4492599Y504037D01*
X4487875Y505256D01*
X4482998Y505968D01*
G37*
G36*
X4611116Y506222D02*
G01*
X4605578Y505866D01*
X4600397Y504748D01*
X4595520Y503021D01*
X4590846Y500735D01*
X4586427Y497941D01*
X4582210Y494741D01*
X4578045Y491235D01*
X4574032Y487426D01*
X4573524Y487426D01*
X4571746Y503428D01*
X4558284Y503428D01*
X4558284Y393700D01*
X4574794Y393700D01*
X4574794Y473964D01*
X4582871Y481685D01*
X4586681Y484733D01*
X4590440Y487222D01*
X4594148Y489204D01*
X4597958Y490626D01*
X4601870Y491439D01*
X4606036Y491743D01*
X4611370Y491286D01*
X4615891Y489966D01*
X4619650Y487730D01*
X4622698Y484530D01*
X4624984Y480263D01*
X4626610Y475030D01*
X4627575Y468680D01*
X4627880Y461264D01*
X4627880Y393700D01*
X4644644Y393700D01*
X4644644Y463296D01*
X4644440Y470052D01*
X4643729Y476250D01*
X4642612Y481888D01*
X4641037Y486968D01*
X4639005Y491439D01*
X4636465Y495350D01*
X4633468Y498652D01*
X4629962Y501345D01*
X4626000Y503478D01*
X4621530Y505002D01*
X4616602Y505917D01*
G37*
G36*
X4878324Y506222D02*
G01*
X4871872Y505866D01*
X4865624Y504850D01*
X4859680Y503326D01*
X4854041Y501345D01*
X4848758Y499109D01*
X4843932Y496671D01*
X4835652Y491743D01*
X4842510Y480314D01*
X4849368Y484682D01*
X4857343Y488594D01*
X4866182Y491439D01*
X4875784Y492506D01*
X4882184Y491845D01*
X4887417Y489966D01*
X4891532Y487070D01*
X4894630Y483311D01*
X4896815Y478840D01*
X4898237Y473862D01*
X4898999Y468528D01*
X4899152Y463042D01*
X4882642Y460756D01*
X4875326Y459333D01*
X4868570Y457758D01*
X4862423Y455980D01*
X4856835Y454050D01*
X4851857Y451866D01*
X4847386Y449529D01*
X4843526Y446938D01*
X4840173Y444093D01*
X4837379Y441045D01*
X4835093Y437743D01*
X4833315Y434187D01*
X4832045Y430377D01*
X4831334Y426262D01*
X4831139Y422909D01*
X4847082Y422909D01*
X4847386Y426516D01*
X4848250Y429920D01*
X4849774Y433120D01*
X4851958Y436067D01*
X4854854Y438810D01*
X4858562Y441299D01*
X4863033Y443585D01*
X4868367Y445668D01*
X4874615Y447497D01*
X4881778Y449173D01*
X4889957Y450646D01*
X4899152Y451866D01*
X4899152Y419608D01*
X4891074Y413054D01*
X4883302Y408279D01*
X4875530Y405333D01*
X4867402Y404368D01*
X4859528Y405384D01*
X4853076Y408686D01*
X4848707Y414426D01*
X4847082Y422909D01*
X4831139Y422909D01*
X4831080Y421893D01*
X4831689Y414883D01*
X4833518Y408736D01*
X4836363Y403453D01*
X4840224Y399084D01*
X4844948Y395681D01*
X4850384Y393192D01*
X4856480Y391668D01*
X4863084Y391160D01*
X4868164Y391464D01*
X4873142Y392430D01*
X4878019Y393903D01*
X4882743Y395833D01*
X4887315Y398170D01*
X4891684Y400913D01*
X4895900Y403910D01*
X4899914Y407162D01*
X4900676Y407162D01*
X4901946Y393700D01*
X4915662Y393700D01*
X4915662Y461772D01*
X4915458Y468172D01*
X4914747Y474218D01*
X4913579Y479856D01*
X4911902Y485038D01*
X4909718Y489712D01*
X4906975Y493877D01*
X4903724Y497535D01*
X4899863Y500583D01*
X4895392Y502970D01*
X4890363Y504748D01*
X4884674Y505866D01*
G37*
G36*
X5085080Y506222D02*
G01*
X5080406Y505968D01*
X5075732Y505206D01*
X5071211Y503935D01*
X5066792Y502208D01*
X5062575Y500024D01*
X5058511Y497332D01*
X5054701Y494233D01*
X5051145Y490728D01*
X5047894Y486765D01*
X5044948Y482447D01*
X5042357Y477672D01*
X5040172Y472592D01*
X5038445Y467106D01*
X5037124Y461264D01*
X5036591Y457200D01*
X5052314Y457200D01*
X5053736Y465124D01*
X5056174Y472185D01*
X5059476Y478282D01*
X5063591Y483362D01*
X5068366Y487426D01*
X5073650Y490372D01*
X5079339Y492150D01*
X5085334Y492759D01*
X5091684Y492201D01*
X5097272Y490474D01*
X5102148Y487680D01*
X5106212Y483768D01*
X5109464Y478739D01*
X5111851Y472592D01*
X5113274Y465429D01*
X5113782Y457200D01*
X5036591Y457200D01*
X5036312Y455066D01*
X5036058Y448564D01*
X5036312Y441959D01*
X5037124Y435762D01*
X5038394Y429869D01*
X5040122Y424383D01*
X5042306Y419252D01*
X5044897Y414528D01*
X5047894Y410260D01*
X5051247Y406349D01*
X5054904Y402844D01*
X5058918Y399796D01*
X5063236Y397205D01*
X5067757Y395071D01*
X5072583Y393344D01*
X5077561Y392125D01*
X5082794Y391414D01*
X5088128Y391160D01*
X5093665Y391414D01*
X5098846Y392023D01*
X5103672Y393090D01*
X5108244Y394462D01*
X5112562Y396138D01*
X5116626Y398018D01*
X5124196Y402336D01*
X5118100Y413258D01*
X5111800Y409498D01*
X5105095Y406704D01*
X5097881Y404977D01*
X5090160Y404368D01*
X5084876Y404723D01*
X5079847Y405688D01*
X5075224Y407263D01*
X5070957Y409498D01*
X5067046Y412242D01*
X5063540Y415543D01*
X5060492Y419354D01*
X5057902Y423621D01*
X5055819Y428345D01*
X5054193Y433527D01*
X5053126Y439064D01*
X5052568Y445008D01*
X5127498Y445008D01*
X5127955Y447090D01*
X5128260Y452120D01*
X5127955Y462584D01*
X5126990Y469747D01*
X5125364Y476300D01*
X5123180Y482346D01*
X5120335Y487730D01*
X5116982Y492455D01*
X5112969Y496570D01*
X5108448Y499973D01*
X5103418Y502666D01*
X5097830Y504647D01*
X5091684Y505815D01*
G37*
G36*
X5544312Y506222D02*
G01*
X5537758Y505866D01*
X5531510Y504850D01*
X5525566Y503326D01*
X5519928Y501345D01*
X5514695Y499109D01*
X5509869Y496671D01*
X5501640Y491743D01*
X5508244Y480314D01*
X5515152Y484682D01*
X5523179Y488594D01*
X5532120Y491439D01*
X5541772Y492506D01*
X5548172Y491845D01*
X5553354Y489966D01*
X5557418Y487070D01*
X5560517Y483311D01*
X5562701Y478840D01*
X5564124Y473862D01*
X5564886Y468528D01*
X5565140Y463042D01*
X5548630Y460756D01*
X5541314Y459333D01*
X5534558Y457758D01*
X5528411Y455980D01*
X5522823Y454050D01*
X5517845Y451866D01*
X5513374Y449529D01*
X5509514Y446938D01*
X5506161Y444093D01*
X5503367Y441045D01*
X5501081Y437743D01*
X5499303Y434187D01*
X5498033Y430377D01*
X5497322Y426262D01*
X5497127Y422909D01*
X5513070Y422909D01*
X5513374Y426516D01*
X5514238Y429920D01*
X5515762Y433120D01*
X5517946Y436067D01*
X5520842Y438810D01*
X5524550Y441299D01*
X5529021Y443585D01*
X5534355Y445668D01*
X5540603Y447497D01*
X5547766Y449173D01*
X5555945Y450646D01*
X5565140Y451866D01*
X5565140Y419608D01*
X5557062Y413054D01*
X5549290Y408279D01*
X5541518Y405333D01*
X5533390Y404368D01*
X5525516Y405384D01*
X5519064Y408686D01*
X5514695Y414426D01*
X5513070Y422909D01*
X5497127Y422909D01*
X5497068Y421893D01*
X5497677Y414883D01*
X5499506Y408736D01*
X5502351Y403453D01*
X5506161Y399084D01*
X5510834Y395681D01*
X5516270Y393192D01*
X5522264Y391668D01*
X5528818Y391160D01*
X5533999Y391464D01*
X5539028Y392430D01*
X5543905Y393903D01*
X5548579Y395833D01*
X5553151Y398170D01*
X5557570Y400913D01*
X5561838Y403910D01*
X5565902Y407162D01*
X5566410Y407162D01*
X5567934Y393700D01*
X5581396Y393700D01*
X5581396Y461772D01*
X5581192Y468172D01*
X5580481Y474218D01*
X5579364Y479856D01*
X5577687Y485038D01*
X5575554Y489712D01*
X5572861Y493877D01*
X5569610Y497535D01*
X5565800Y500583D01*
X5561380Y502970D01*
X5556300Y504748D01*
X5550662Y505866D01*
G37*
G36*
X5792724Y506222D02*
G01*
X5787186Y505866D01*
X5782005Y504748D01*
X5777128Y503021D01*
X5772454Y500735D01*
X5768035Y497941D01*
X5763818Y494741D01*
X5759653Y491235D01*
X5755640Y487426D01*
X5755132Y487426D01*
X5753354Y503428D01*
X5739892Y503428D01*
X5739892Y393700D01*
X5756402Y393700D01*
X5756402Y473964D01*
X5764479Y481685D01*
X5768289Y484733D01*
X5772048Y487222D01*
X5775756Y489204D01*
X5779566Y490626D01*
X5783478Y491439D01*
X5787644Y491743D01*
X5792978Y491286D01*
X5797499Y489966D01*
X5801258Y487730D01*
X5804306Y484530D01*
X5806592Y480263D01*
X5808218Y475030D01*
X5809183Y468680D01*
X5809488Y461264D01*
X5809488Y393700D01*
X5826252Y393700D01*
X5826252Y463296D01*
X5826048Y470052D01*
X5825337Y476250D01*
X5824220Y481888D01*
X5822645Y486968D01*
X5820613Y491439D01*
X5818073Y495350D01*
X5815076Y498652D01*
X5811570Y501345D01*
X5807608Y503478D01*
X5803138Y505002D01*
X5798210Y505917D01*
G37*
G36*
X5903468Y506222D02*
G01*
X5898743Y505968D01*
X5894070Y505206D01*
X5889498Y503935D01*
X5885078Y502208D01*
X5880862Y500024D01*
X5876798Y497332D01*
X5872988Y494233D01*
X5869432Y490728D01*
X5866180Y486765D01*
X5863285Y482447D01*
X5860694Y477672D01*
X5858560Y472592D01*
X5856782Y467106D01*
X5855512Y461264D01*
X5854979Y457200D01*
X5870702Y457200D01*
X5872124Y465124D01*
X5874512Y472185D01*
X5877814Y478282D01*
X5881827Y483362D01*
X5886551Y487426D01*
X5891834Y490372D01*
X5897473Y492150D01*
X5903468Y492759D01*
X5909868Y492201D01*
X5915507Y490474D01*
X5920384Y487680D01*
X5924448Y483768D01*
X5927648Y478739D01*
X5929985Y472592D01*
X5931458Y465429D01*
X5931916Y457200D01*
X5854979Y457200D01*
X5854700Y455066D01*
X5854446Y448564D01*
X5854700Y441959D01*
X5855512Y435762D01*
X5856782Y429869D01*
X5858510Y424383D01*
X5860694Y419252D01*
X5863285Y414528D01*
X5866282Y410260D01*
X5869635Y406349D01*
X5873292Y402844D01*
X5877306Y399796D01*
X5881624Y397205D01*
X5886145Y395071D01*
X5890971Y393344D01*
X5895949Y392125D01*
X5901182Y391414D01*
X5906516Y391160D01*
X5912053Y391414D01*
X5917234Y392023D01*
X5922060Y393090D01*
X5926632Y394462D01*
X5930900Y396138D01*
X5934913Y398018D01*
X5942330Y402336D01*
X5936234Y413258D01*
X5929985Y409498D01*
X5923330Y406704D01*
X5916218Y404977D01*
X5908548Y404368D01*
X5903163Y404723D01*
X5898184Y405688D01*
X5893511Y407263D01*
X5889193Y409498D01*
X5885332Y412242D01*
X5881827Y415543D01*
X5878830Y419354D01*
X5876239Y423621D01*
X5874156Y428345D01*
X5872581Y433527D01*
X5871514Y439064D01*
X5870956Y445008D01*
X5945886Y445008D01*
X5946444Y449478D01*
X5946648Y454914D01*
X5946343Y462584D01*
X5945378Y469747D01*
X5943752Y476300D01*
X5941568Y482346D01*
X5938723Y487730D01*
X5935370Y492455D01*
X5931357Y496570D01*
X5926836Y499973D01*
X5921806Y502666D01*
X5916218Y504647D01*
X5910072Y505815D01*
G37*
G36*
X6021324Y506222D02*
G01*
X6016701Y505815D01*
X6012281Y504596D01*
X6007963Y502615D01*
X6003899Y499922D01*
X6000038Y496620D01*
X5996432Y492709D01*
X5993079Y488289D01*
X5990082Y483362D01*
X5989574Y483362D01*
X5987796Y503428D01*
X5974588Y503428D01*
X5974588Y393700D01*
X5990844Y393700D01*
X5990844Y465328D01*
X5993892Y471932D01*
X5997194Y477418D01*
X6000699Y481888D01*
X6004407Y485444D01*
X6008166Y488086D01*
X6011976Y489864D01*
X6015685Y490880D01*
X6019292Y491235D01*
X6024575Y490829D01*
X6029452Y489458D01*
X6032754Y503935D01*
X6030112Y505053D01*
X6027420Y505764D01*
X6024524Y506120D01*
G37*
G36*
X7410450Y506222D02*
G01*
X7405319Y505968D01*
X7400290Y505256D01*
X7395362Y504037D01*
X7390638Y502361D01*
X7386116Y500227D01*
X7381798Y497636D01*
X7377785Y494588D01*
X7374026Y491083D01*
X7370622Y487222D01*
X7367574Y482904D01*
X7364882Y478129D01*
X7362647Y472998D01*
X7360818Y467461D01*
X7359497Y461518D01*
X7358684Y455218D01*
X7358380Y448564D01*
X7358634Y441909D01*
X7359396Y435660D01*
X7360615Y429768D01*
X7362291Y424281D01*
X7364374Y419150D01*
X7366863Y414426D01*
X7369759Y410108D01*
X7373010Y406247D01*
X7376617Y402793D01*
X7380478Y399745D01*
X7384694Y397154D01*
X7389114Y395020D01*
X7393838Y393344D01*
X7398766Y392125D01*
X7403896Y391414D01*
X7409180Y391160D01*
X7414158Y391414D01*
X7419035Y392074D01*
X7423759Y393242D01*
X7428280Y394817D01*
X7432700Y396798D01*
X7436916Y399186D01*
X7440930Y401980D01*
X7444740Y405130D01*
X7437374Y416051D01*
X7431786Y411734D01*
X7425385Y408178D01*
X7418324Y405790D01*
X7410703Y404876D01*
X7405573Y405231D01*
X7400747Y406298D01*
X7396276Y408025D01*
X7392162Y410413D01*
X7388453Y413359D01*
X7385151Y416915D01*
X7382256Y420979D01*
X7379868Y425602D01*
X7377938Y430682D01*
X7376566Y436219D01*
X7375702Y442214D01*
X7375398Y448564D01*
X7375702Y454863D01*
X7376617Y460806D01*
X7378090Y466343D01*
X7380122Y471424D01*
X7382611Y475996D01*
X7385608Y480110D01*
X7389012Y483666D01*
X7392771Y486664D01*
X7396937Y489051D01*
X7401407Y490829D01*
X7406182Y491896D01*
X7411212Y492251D01*
X7417714Y491540D01*
X7423556Y489508D01*
X7428890Y486359D01*
X7433818Y482346D01*
X7442708Y493014D01*
X7436408Y498093D01*
X7429042Y502259D01*
X7420508Y505155D01*
G37*
G36*
X7695692Y506222D02*
G01*
X7690713Y505968D01*
X7685786Y505256D01*
X7681010Y504037D01*
X7676438Y502361D01*
X7672019Y500227D01*
X7667853Y497636D01*
X7663942Y494588D01*
X7660335Y491083D01*
X7657033Y487222D01*
X7654036Y482904D01*
X7651445Y478129D01*
X7649260Y472998D01*
X7647482Y467461D01*
X7646212Y461518D01*
X7645400Y455218D01*
X7645146Y448564D01*
X7662164Y448564D01*
X7662468Y454863D01*
X7663281Y460806D01*
X7664602Y466343D01*
X7666431Y471424D01*
X7668768Y475996D01*
X7671511Y480110D01*
X7674660Y483666D01*
X7678216Y486664D01*
X7682077Y489051D01*
X7686344Y490829D01*
X7690866Y491896D01*
X7695692Y492251D01*
X7700467Y491896D01*
X7704988Y490829D01*
X7709204Y489051D01*
X7713065Y486664D01*
X7716621Y483666D01*
X7719771Y480110D01*
X7722565Y475996D01*
X7724851Y471424D01*
X7726730Y466343D01*
X7728102Y460806D01*
X7728915Y454863D01*
X7729220Y448564D01*
X7728915Y442214D01*
X7728102Y436219D01*
X7726730Y430682D01*
X7724851Y425602D01*
X7722565Y420979D01*
X7719771Y416915D01*
X7716621Y413359D01*
X7713065Y410413D01*
X7709204Y408025D01*
X7704988Y406298D01*
X7700467Y405231D01*
X7695692Y404876D01*
X7690866Y405231D01*
X7686344Y406298D01*
X7682077Y408025D01*
X7678216Y410413D01*
X7674660Y413359D01*
X7671511Y416915D01*
X7668768Y420979D01*
X7666431Y425602D01*
X7664602Y430682D01*
X7663281Y436219D01*
X7662468Y442214D01*
X7662164Y448564D01*
X7645146Y448564D01*
X7645400Y441909D01*
X7646212Y435660D01*
X7647482Y429768D01*
X7649260Y424281D01*
X7651445Y419150D01*
X7654036Y414426D01*
X7657033Y410108D01*
X7660335Y406247D01*
X7663942Y402793D01*
X7667853Y399745D01*
X7672019Y397154D01*
X7676438Y395020D01*
X7681010Y393344D01*
X7685786Y392125D01*
X7690713Y391414D01*
X7695692Y391160D01*
X7700670Y391414D01*
X7705547Y392125D01*
X7710271Y393344D01*
X7714843Y395020D01*
X7719212Y397154D01*
X7723428Y399745D01*
X7727340Y402793D01*
X7730947Y406247D01*
X7734300Y410108D01*
X7737297Y414426D01*
X7739888Y419150D01*
X7742072Y424281D01*
X7743850Y429768D01*
X7745171Y435660D01*
X7745984Y441909D01*
X7746238Y448564D01*
X7745984Y455218D01*
X7745171Y461518D01*
X7743850Y467461D01*
X7742072Y472998D01*
X7739888Y478129D01*
X7737297Y482904D01*
X7734300Y487222D01*
X7730947Y491134D01*
X7727340Y494588D01*
X7723428Y497636D01*
X7719212Y500227D01*
X7714843Y502361D01*
X7710271Y504037D01*
X7705547Y505256D01*
X7700670Y505968D01*
G37*
G36*
X7825740Y506222D02*
G01*
X7821015Y505815D01*
X7816443Y504748D01*
X7811922Y503021D01*
X7807604Y500684D01*
X7803388Y497890D01*
X7799324Y494639D01*
X7795412Y491032D01*
X7791703Y487172D01*
X7791196Y487172D01*
X7789418Y503428D01*
X7775956Y503428D01*
X7775956Y393700D01*
X7792466Y393700D01*
X7792466Y473964D01*
X7800136Y481787D01*
X7807502Y487324D01*
X7814513Y490626D01*
X7821168Y491743D01*
X7826349Y491286D01*
X7830769Y489966D01*
X7834477Y487730D01*
X7837474Y484530D01*
X7839811Y480263D01*
X7841437Y475030D01*
X7842453Y468680D01*
X7842758Y461264D01*
X7842758Y393700D01*
X7859268Y393700D01*
X7859268Y473964D01*
X7866888Y481787D01*
X7874203Y487324D01*
X7881213Y490626D01*
X7887970Y491743D01*
X7893100Y491286D01*
X7897520Y489966D01*
X7901178Y487730D01*
X7904175Y484530D01*
X7906461Y480263D01*
X7908036Y475030D01*
X7909001Y468680D01*
X7909306Y461264D01*
X7909306Y393700D01*
X7926070Y393700D01*
X7926070Y463296D01*
X7925866Y470052D01*
X7925155Y476250D01*
X7924038Y481888D01*
X7922412Y486968D01*
X7920329Y491439D01*
X7917840Y495350D01*
X7914843Y498652D01*
X7911338Y501345D01*
X7907426Y503478D01*
X7903006Y505002D01*
X7898130Y505917D01*
X7892796Y506222D01*
X7887919Y505815D01*
X7883144Y504698D01*
X7878521Y502818D01*
X7873949Y500329D01*
X7869428Y497230D01*
X7865008Y493572D01*
X7860588Y489458D01*
X7856220Y484885D01*
X7854391Y489508D01*
X7852054Y493674D01*
X7849260Y497332D01*
X7845856Y500430D01*
X7841843Y502869D01*
X7837170Y504698D01*
X7831836Y505815D01*
G37*
G36*
X8003031Y506222D02*
G01*
X7996478Y505866D01*
X7990230Y504850D01*
X7984286Y503326D01*
X7978648Y501345D01*
X7973415Y499109D01*
X7968589Y496671D01*
X7960359Y491743D01*
X7966964Y480314D01*
X7973872Y484682D01*
X7981899Y488594D01*
X7990840Y491439D01*
X8000492Y492506D01*
X8006892Y491845D01*
X8012074Y489966D01*
X8016138Y487070D01*
X8019237Y483311D01*
X8021421Y478840D01*
X8022844Y473862D01*
X8023606Y468528D01*
X8023859Y463042D01*
X8007350Y460756D01*
X8000034Y459333D01*
X7993278Y457758D01*
X7987131Y455980D01*
X7981543Y454050D01*
X7976565Y451866D01*
X7972094Y449529D01*
X7968234Y446938D01*
X7964881Y444093D01*
X7962087Y441045D01*
X7959801Y437743D01*
X7958023Y434187D01*
X7956753Y430377D01*
X7956042Y426262D01*
X7955847Y422909D01*
X7971790Y422909D01*
X7972094Y426516D01*
X7972958Y429920D01*
X7974482Y433120D01*
X7976666Y436067D01*
X7979562Y438810D01*
X7983270Y441299D01*
X7987741Y443585D01*
X7993075Y445668D01*
X7999323Y447497D01*
X8006486Y449173D01*
X8014665Y450646D01*
X8023859Y451866D01*
X8023859Y419608D01*
X8015782Y413054D01*
X8008010Y408279D01*
X8000238Y405333D01*
X7992109Y404368D01*
X7984236Y405384D01*
X7977784Y408686D01*
X7973415Y414426D01*
X7971790Y422909D01*
X7955847Y422909D01*
X7955788Y421893D01*
X7956397Y414883D01*
X7958226Y408736D01*
X7961071Y403453D01*
X7964881Y399084D01*
X7969554Y395681D01*
X7974990Y393192D01*
X7980984Y391668D01*
X7987538Y391160D01*
X7992719Y391464D01*
X7997748Y392430D01*
X8002625Y393903D01*
X8007299Y395833D01*
X8011871Y398170D01*
X8016290Y400913D01*
X8020558Y403910D01*
X8024622Y407162D01*
X8025130Y407162D01*
X8026653Y393700D01*
X8040116Y393700D01*
X8040116Y461772D01*
X8039912Y468172D01*
X8039201Y474218D01*
X8038084Y479856D01*
X8036407Y485038D01*
X8034274Y489712D01*
X8031581Y493877D01*
X8028330Y497535D01*
X8024520Y500583D01*
X8020100Y502970D01*
X8015020Y504748D01*
X8009381Y505866D01*
G37*
G36*
X8183625Y506222D02*
G01*
X8178190Y505866D01*
X8173008Y504748D01*
X8168131Y503021D01*
X8163509Y500735D01*
X8159089Y497941D01*
X8154822Y494741D01*
X8150758Y491235D01*
X8146796Y487426D01*
X8146034Y487426D01*
X8144509Y503428D01*
X8131048Y503428D01*
X8131048Y393700D01*
X8147558Y393700D01*
X8147558Y473964D01*
X8155635Y481685D01*
X8159394Y484733D01*
X8163102Y487222D01*
X8166811Y489204D01*
X8170621Y490626D01*
X8174583Y491439D01*
X8178800Y491743D01*
X8184134Y491286D01*
X8188655Y489966D01*
X8192414Y487730D01*
X8195462Y484530D01*
X8197748Y480263D01*
X8199374Y475030D01*
X8200339Y468680D01*
X8200644Y461264D01*
X8200644Y393700D01*
X8217153Y393700D01*
X8217153Y463296D01*
X8216950Y470052D01*
X8216290Y476250D01*
X8215172Y481888D01*
X8213598Y486968D01*
X8211566Y491439D01*
X8209076Y495350D01*
X8206079Y498652D01*
X8202574Y501345D01*
X8198612Y503478D01*
X8194141Y505002D01*
X8189163Y505917D01*
G37*
G36*
X8478520Y506222D02*
G01*
X8473846Y505968D01*
X8469172Y505206D01*
X8464651Y503935D01*
X8460232Y502208D01*
X8456015Y500024D01*
X8451951Y497332D01*
X8448141Y494233D01*
X8444585Y490728D01*
X8441334Y486765D01*
X8438388Y482447D01*
X8435797Y477672D01*
X8433612Y472592D01*
X8431885Y467106D01*
X8430564Y461264D01*
X8430031Y457200D01*
X8445754Y457200D01*
X8447176Y465124D01*
X8449614Y472185D01*
X8452916Y478282D01*
X8457031Y483362D01*
X8461806Y487426D01*
X8467090Y490372D01*
X8472779Y492150D01*
X8478774Y492759D01*
X8485124Y492201D01*
X8490712Y490474D01*
X8495588Y487680D01*
X8499652Y483768D01*
X8502904Y478739D01*
X8505291Y472592D01*
X8506714Y465429D01*
X8507222Y457200D01*
X8430031Y457200D01*
X8429752Y455066D01*
X8429498Y448564D01*
X8429752Y441959D01*
X8430564Y435762D01*
X8431834Y429869D01*
X8433562Y424383D01*
X8435746Y419252D01*
X8438337Y414528D01*
X8441334Y410260D01*
X8444687Y406349D01*
X8448344Y402844D01*
X8452358Y399796D01*
X8456676Y397205D01*
X8461197Y395071D01*
X8466023Y393344D01*
X8471001Y392125D01*
X8476234Y391414D01*
X8481568Y391160D01*
X8487105Y391414D01*
X8492286Y392023D01*
X8497112Y393090D01*
X8501684Y394462D01*
X8506002Y396138D01*
X8510066Y398018D01*
X8517636Y402336D01*
X8511540Y413258D01*
X8505240Y409498D01*
X8498535Y406704D01*
X8491321Y404977D01*
X8483600Y404368D01*
X8478316Y404723D01*
X8473287Y405688D01*
X8468664Y407263D01*
X8464397Y409498D01*
X8460486Y412242D01*
X8456980Y415543D01*
X8453932Y419354D01*
X8451342Y423621D01*
X8449259Y428345D01*
X8447633Y433527D01*
X8446566Y439064D01*
X8446008Y445008D01*
X8520938Y445008D01*
X8521395Y447090D01*
X8521700Y452120D01*
X8521395Y462584D01*
X8520430Y469747D01*
X8518804Y476300D01*
X8516620Y482346D01*
X8513775Y487730D01*
X8510422Y492455D01*
X8506409Y496570D01*
X8501888Y499973D01*
X8496858Y502666D01*
X8491270Y504647D01*
X8485124Y505815D01*
G37*
G36*
X8772906Y506222D02*
G01*
X8767775Y505968D01*
X8762746Y505256D01*
X8757818Y504037D01*
X8753094Y502361D01*
X8748572Y500227D01*
X8744254Y497636D01*
X8740241Y494588D01*
X8736482Y491083D01*
X8733078Y487222D01*
X8730030Y482904D01*
X8727338Y478129D01*
X8725103Y472998D01*
X8723274Y467461D01*
X8721953Y461518D01*
X8721140Y455218D01*
X8720836Y448564D01*
X8721090Y441909D01*
X8721852Y435660D01*
X8723071Y429768D01*
X8724747Y424281D01*
X8726830Y419150D01*
X8729319Y414426D01*
X8732215Y410108D01*
X8735466Y406247D01*
X8739073Y402793D01*
X8742934Y399745D01*
X8747150Y397154D01*
X8751570Y395020D01*
X8756294Y393344D01*
X8761222Y392125D01*
X8766352Y391414D01*
X8771636Y391160D01*
X8776614Y391414D01*
X8781491Y392074D01*
X8786215Y393242D01*
X8790736Y394817D01*
X8795156Y396798D01*
X8799372Y399186D01*
X8803386Y401980D01*
X8807196Y405130D01*
X8799830Y416051D01*
X8794242Y411734D01*
X8787841Y408178D01*
X8780780Y405790D01*
X8773160Y404876D01*
X8768029Y405231D01*
X8763203Y406298D01*
X8758732Y408025D01*
X8754618Y410413D01*
X8750909Y413359D01*
X8747607Y416915D01*
X8744712Y420979D01*
X8742324Y425602D01*
X8740394Y430682D01*
X8739022Y436219D01*
X8738158Y442214D01*
X8737854Y448564D01*
X8738158Y454863D01*
X8739073Y460806D01*
X8740546Y466343D01*
X8742578Y471424D01*
X8745067Y475996D01*
X8748064Y480110D01*
X8751468Y483666D01*
X8755227Y486664D01*
X8759393Y489051D01*
X8763863Y490829D01*
X8768638Y491896D01*
X8773668Y492251D01*
X8780170Y491540D01*
X8786012Y489508D01*
X8791346Y486359D01*
X8796274Y482346D01*
X8805164Y493014D01*
X8798864Y498093D01*
X8791498Y502259D01*
X8782964Y505155D01*
G37*
G36*
X8870188Y506222D02*
G01*
X8863634Y505866D01*
X8857335Y504850D01*
X8851341Y503326D01*
X8845702Y501345D01*
X8840470Y499109D01*
X8835644Y496671D01*
X8827516Y491743D01*
X8834120Y480314D01*
X8840978Y484682D01*
X8848953Y488594D01*
X8857792Y491439D01*
X8867394Y492506D01*
X8873896Y491845D01*
X8879128Y489966D01*
X8883243Y487070D01*
X8886342Y483311D01*
X8888526Y478840D01*
X8889898Y473862D01*
X8890609Y468528D01*
X8890762Y463042D01*
X8874353Y460756D01*
X8867038Y459333D01*
X8860282Y457758D01*
X8854135Y455980D01*
X8848598Y454050D01*
X8843568Y451866D01*
X8839098Y449529D01*
X8835186Y446938D01*
X8831834Y444093D01*
X8829040Y441045D01*
X8826703Y437743D01*
X8824925Y434187D01*
X8823706Y430377D01*
X8822944Y426262D01*
X8822749Y422909D01*
X8838692Y422909D01*
X8838996Y426516D01*
X8839860Y429920D01*
X8841384Y433120D01*
X8843568Y436067D01*
X8846464Y438810D01*
X8850172Y441299D01*
X8854643Y443585D01*
X8859977Y445668D01*
X8866225Y447497D01*
X8873388Y449173D01*
X8881567Y450646D01*
X8890762Y451866D01*
X8890762Y419608D01*
X8882684Y413054D01*
X8874912Y408279D01*
X8867140Y405333D01*
X8859012Y404368D01*
X8851138Y405384D01*
X8844686Y408686D01*
X8840317Y414426D01*
X8838692Y422909D01*
X8822749Y422909D01*
X8822690Y421893D01*
X8823350Y414883D01*
X8825179Y408736D01*
X8828074Y403453D01*
X8831935Y399084D01*
X8836660Y395681D01*
X8842095Y393192D01*
X8848140Y391668D01*
X8854694Y391160D01*
X8859774Y391464D01*
X8864752Y392430D01*
X8869629Y393903D01*
X8874353Y395833D01*
X8878925Y398170D01*
X8883294Y400913D01*
X8887510Y403910D01*
X8891524Y407162D01*
X8892286Y407162D01*
X8893556Y393700D01*
X8907272Y393700D01*
X8907272Y461772D01*
X8907068Y468172D01*
X8906357Y474218D01*
X8905189Y479856D01*
X8903512Y485038D01*
X8901328Y489712D01*
X8898636Y493877D01*
X8895384Y497535D01*
X8891524Y500583D01*
X8887104Y502970D01*
X8882126Y504748D01*
X8876487Y505866D01*
G37*
G36*
X9111996Y506222D02*
G01*
X9107017Y505968D01*
X9102090Y505256D01*
X9097314Y504037D01*
X9092742Y502361D01*
X9088323Y500227D01*
X9084157Y497636D01*
X9080246Y494588D01*
X9076639Y491083D01*
X9073337Y487222D01*
X9070340Y482904D01*
X9067749Y478129D01*
X9065564Y472998D01*
X9063786Y467461D01*
X9062516Y461518D01*
X9061704Y455218D01*
X9061450Y448564D01*
X9078468Y448564D01*
X9078772Y454863D01*
X9079585Y460806D01*
X9080906Y466343D01*
X9082735Y471424D01*
X9085072Y475996D01*
X9087815Y480110D01*
X9090964Y483666D01*
X9094520Y486664D01*
X9098381Y489051D01*
X9102648Y490829D01*
X9107170Y491896D01*
X9111996Y492251D01*
X9116771Y491896D01*
X9121292Y490829D01*
X9125508Y489051D01*
X9129369Y486664D01*
X9132925Y483666D01*
X9136075Y480110D01*
X9138869Y475996D01*
X9141155Y471424D01*
X9143034Y466343D01*
X9144406Y460806D01*
X9145219Y454863D01*
X9145524Y448564D01*
X9145219Y442214D01*
X9144406Y436219D01*
X9143034Y430682D01*
X9141155Y425602D01*
X9138869Y420979D01*
X9136075Y416915D01*
X9132925Y413359D01*
X9129369Y410413D01*
X9125508Y408025D01*
X9121292Y406298D01*
X9116771Y405231D01*
X9111996Y404876D01*
X9107170Y405231D01*
X9102648Y406298D01*
X9098381Y408025D01*
X9094520Y410413D01*
X9090964Y413359D01*
X9087815Y416915D01*
X9085072Y420979D01*
X9082735Y425602D01*
X9080906Y430682D01*
X9079585Y436219D01*
X9078772Y442214D01*
X9078468Y448564D01*
X9061450Y448564D01*
X9061704Y441909D01*
X9062516Y435660D01*
X9063786Y429768D01*
X9065564Y424281D01*
X9067749Y419150D01*
X9070340Y414426D01*
X9073337Y410108D01*
X9076639Y406247D01*
X9080246Y402793D01*
X9084157Y399745D01*
X9088323Y397154D01*
X9092742Y395020D01*
X9097314Y393344D01*
X9102090Y392125D01*
X9107017Y391414D01*
X9111996Y391160D01*
X9116974Y391414D01*
X9121851Y392125D01*
X9126575Y393344D01*
X9131147Y395020D01*
X9135516Y397154D01*
X9139732Y399745D01*
X9143644Y402793D01*
X9147251Y406247D01*
X9150604Y410108D01*
X9153601Y414426D01*
X9156192Y419150D01*
X9158376Y424281D01*
X9160154Y429768D01*
X9161475Y435660D01*
X9162288Y441909D01*
X9162542Y448564D01*
X9162288Y455218D01*
X9161475Y461518D01*
X9160154Y467461D01*
X9158376Y472998D01*
X9156192Y478129D01*
X9153601Y482904D01*
X9150604Y487222D01*
X9147251Y491134D01*
X9143644Y494588D01*
X9139732Y497636D01*
X9135516Y500227D01*
X9131147Y502361D01*
X9126575Y504037D01*
X9121851Y505256D01*
X9116974Y505968D01*
G37*
G36*
X9245092Y506222D02*
G01*
X9239554Y505866D01*
X9234373Y504748D01*
X9229496Y503021D01*
X9224822Y500735D01*
X9220403Y497941D01*
X9216186Y494741D01*
X9212021Y491235D01*
X9208008Y487426D01*
X9207500Y487426D01*
X9205722Y503428D01*
X9192260Y503428D01*
X9192260Y393700D01*
X9208770Y393700D01*
X9208770Y473964D01*
X9216847Y481685D01*
X9220657Y484733D01*
X9224416Y487222D01*
X9228124Y489204D01*
X9231934Y490626D01*
X9235846Y491439D01*
X9240012Y491743D01*
X9245346Y491286D01*
X9249867Y489966D01*
X9253626Y487730D01*
X9256674Y484530D01*
X9258960Y480263D01*
X9260586Y475030D01*
X9261551Y468680D01*
X9261856Y461264D01*
X9261856Y393700D01*
X9278620Y393700D01*
X9278620Y463296D01*
X9278416Y470052D01*
X9277705Y476250D01*
X9276588Y481888D01*
X9275013Y486968D01*
X9272981Y491439D01*
X9270441Y495350D01*
X9267444Y498652D01*
X9263938Y501345D01*
X9259976Y503478D01*
X9255506Y505002D01*
X9250578Y505917D01*
G37*
G36*
X3335528Y503428D02*
G01*
X3375660Y393700D01*
X3394964Y393700D01*
X3434079Y503428D01*
X3417824Y503428D01*
X3395979Y439674D01*
X3391001Y423265D01*
X3385820Y407416D01*
X3384804Y407416D01*
X3379622Y423265D01*
X3374644Y439674D01*
X3352800Y503428D01*
G37*
G36*
X4945888Y503428D02*
G01*
X4945888Y489712D01*
X4998974Y489712D01*
X4939284Y402590D01*
X4939284Y393700D01*
X5021580Y393700D01*
X5021580Y407416D01*
X4960366Y407416D01*
X5019802Y494792D01*
X5019802Y503428D01*
G37*
G36*
X5615940Y503428D02*
G01*
X5615940Y433832D01*
X5616143Y427075D01*
X5616803Y420878D01*
X5617921Y415290D01*
X5619496Y410260D01*
X5621528Y405790D01*
X5624017Y401929D01*
X5627014Y398627D01*
X5630519Y395935D01*
X5634482Y393852D01*
X5638952Y392379D01*
X5643930Y391464D01*
X5649468Y391160D01*
X5655005Y391515D01*
X5660136Y392633D01*
X5665012Y394360D01*
X5669584Y396697D01*
X5673902Y399643D01*
X5678068Y403047D01*
X5682132Y406958D01*
X5686044Y411226D01*
X5686552Y411226D01*
X5688076Y393700D01*
X5701538Y393700D01*
X5701538Y503428D01*
X5685028Y503428D01*
X5685028Y424688D01*
X5681065Y420065D01*
X5677204Y416102D01*
X5673496Y412800D01*
X5669838Y410057D01*
X5666181Y408025D01*
X5662371Y406552D01*
X5658459Y405688D01*
X5654294Y405384D01*
X5648909Y405841D01*
X5644337Y407162D01*
X5640578Y409448D01*
X5637580Y412699D01*
X5635294Y416966D01*
X5633669Y422198D01*
X5632754Y428498D01*
X5632450Y435864D01*
X5632450Y503428D01*
G37*
G36*
X7006844Y503428D02*
G01*
X7006844Y433832D01*
X7007047Y427075D01*
X7007707Y420878D01*
X7008774Y415290D01*
X7010349Y410260D01*
X7012330Y405790D01*
X7014819Y401929D01*
X7017766Y398627D01*
X7021220Y395935D01*
X7025182Y393852D01*
X7029653Y392379D01*
X7034631Y391464D01*
X7040118Y391160D01*
X7045655Y391515D01*
X7050786Y392633D01*
X7055662Y394360D01*
X7060234Y396697D01*
X7064552Y399643D01*
X7068718Y403047D01*
X7072782Y406958D01*
X7076694Y411226D01*
X7077202Y411226D01*
X7078725Y393700D01*
X7092188Y393700D01*
X7092188Y503428D01*
X7075931Y503428D01*
X7075931Y424688D01*
X7071868Y420065D01*
X7068007Y416102D01*
X7064298Y412800D01*
X7060641Y410057D01*
X7056932Y408025D01*
X7053122Y406552D01*
X7049160Y405688D01*
X7044944Y405384D01*
X7039559Y405841D01*
X7034987Y407162D01*
X7031228Y409448D01*
X7028230Y412699D01*
X7025944Y416966D01*
X7024319Y422198D01*
X7023404Y428498D01*
X7023100Y435864D01*
X7023100Y503428D01*
G37*
G36*
X7312152Y503428D02*
G01*
X7312152Y393700D01*
X7328662Y393700D01*
X7328662Y503428D01*
G37*
G36*
X8076438Y503428D02*
G01*
X8076438Y393700D01*
X8092948Y393700D01*
X8092948Y503428D01*
G37*
G36*
X8674608Y503428D02*
G01*
X8674608Y393700D01*
X8691118Y393700D01*
X8691118Y503428D01*
G37*
G36*
X9015476Y503428D02*
G01*
X9015476Y393700D01*
X9031732Y393700D01*
X9031732Y503428D01*
G37*
G36*
X6834124Y500380D02*
G01*
X6829450Y499414D01*
X6825538Y496671D01*
X6822897Y492455D01*
X6821931Y486918D01*
X6822897Y481685D01*
X6825538Y477570D01*
X6829450Y474929D01*
X6834124Y473964D01*
X6839102Y474929D01*
X6843166Y477570D01*
X6845858Y481685D01*
X6846824Y486918D01*
X6845858Y492455D01*
X6843166Y496671D01*
X6839102Y499414D01*
G37*
G36*
X3995165Y456946D02*
G01*
X3995165Y443992D01*
X4046474Y443992D01*
X4046474Y456946D01*
G37*
G36*
X3456940Y417576D02*
G01*
X3452266Y416610D01*
X3448354Y413918D01*
X3445713Y409651D01*
X3444748Y404114D01*
X3445713Y398780D01*
X3448354Y394665D01*
X3452266Y392074D01*
X3456940Y391160D01*
X3461918Y392074D01*
X3465982Y394665D01*
X3468674Y398780D01*
X3469640Y404114D01*
X3468674Y409651D01*
X3465982Y413867D01*
X3461918Y416610D01*
G37*
G36*
X3668776Y417576D02*
G01*
X3664051Y416610D01*
X3660089Y413918D01*
X3657346Y409651D01*
X3656329Y404114D01*
X3657346Y398780D01*
X3660089Y394665D01*
X3664051Y392074D01*
X3668776Y391160D01*
X3673652Y392074D01*
X3677716Y394665D01*
X3680460Y398780D01*
X3681476Y404114D01*
X3680460Y409651D01*
X3677716Y413867D01*
X3673652Y416610D01*
G37*
G36*
X6048756Y417576D02*
G01*
X6043828Y416763D01*
X6039713Y414324D01*
X6036868Y410514D01*
X6035802Y405384D01*
X6036818Y400151D01*
X6039561Y396341D01*
X6043625Y394004D01*
X6049060Y393192D01*
X6050788Y393446D01*
X6049467Y384911D01*
X6045606Y377342D01*
X6039408Y370890D01*
X6031230Y365760D01*
X6035548Y356108D01*
X6041644Y359257D01*
X6047079Y363067D01*
X6051854Y367436D01*
X6055918Y372364D01*
X6059119Y377799D01*
X6061506Y383743D01*
X6062980Y390144D01*
X6063488Y397002D01*
X6062472Y405587D01*
X6059576Y412038D01*
X6054902Y416153D01*
G37*
G36*
X6667753Y417576D02*
G01*
X6663029Y416610D01*
X6659067Y413918D01*
X6656324Y409651D01*
X6655308Y404114D01*
X6656324Y398780D01*
X6659067Y394665D01*
X6663029Y392074D01*
X6667753Y391160D01*
X6672630Y392074D01*
X6676694Y394665D01*
X6679438Y398780D01*
X6680453Y404114D01*
X6679438Y409651D01*
X6676694Y413867D01*
X6672630Y416610D01*
G37*
G36*
X6834124Y417576D02*
G01*
X6829450Y416610D01*
X6825538Y413918D01*
X6822897Y409651D01*
X6821931Y404114D01*
X6822897Y398780D01*
X6825538Y394665D01*
X6829450Y392074D01*
X6834124Y391160D01*
X6839102Y392074D01*
X6843166Y394665D01*
X6845858Y398780D01*
X6846824Y404114D01*
X6845858Y409651D01*
X6843166Y413867D01*
X6839102Y416610D01*
G37*
G36*
X7379462Y809498D02*
G01*
X7379462Y766318D01*
X7380224Y747268D01*
X7372959Y752703D01*
X7365593Y756818D01*
X7357719Y759358D01*
X7348728Y760222D01*
X7344054Y759968D01*
X7339431Y759206D01*
X7334961Y757936D01*
X7330643Y756158D01*
X7326528Y753973D01*
X7322566Y751281D01*
X7318857Y748182D01*
X7315403Y744626D01*
X7312253Y740664D01*
X7309459Y736346D01*
X7306970Y731570D01*
X7304887Y726490D01*
X7303211Y721004D01*
X7301992Y715162D01*
X7301230Y709015D01*
X7300975Y702564D01*
X7318248Y702564D01*
X7318552Y708812D01*
X7319416Y714705D01*
X7320788Y720191D01*
X7322667Y725271D01*
X7325055Y729894D01*
X7327798Y734009D01*
X7330948Y737616D01*
X7334453Y740613D01*
X7338263Y743051D01*
X7342378Y744778D01*
X7346746Y745896D01*
X7351268Y746252D01*
X7358329Y745540D01*
X7365288Y743407D01*
X7372248Y739597D01*
X7379462Y734060D01*
X7379462Y674624D01*
X7372146Y667918D01*
X7364882Y663092D01*
X7357516Y660146D01*
X7349744Y659130D01*
X7344918Y659485D01*
X7340447Y660501D01*
X7336332Y662127D01*
X7332675Y664413D01*
X7329373Y667308D01*
X7326477Y670763D01*
X7323988Y674776D01*
X7321956Y679348D01*
X7320330Y684428D01*
X7319162Y690016D01*
X7318502Y696061D01*
X7318248Y702564D01*
X7300975Y702564D01*
X7301179Y695858D01*
X7301788Y689508D01*
X7302804Y683564D01*
X7304176Y678078D01*
X7305954Y672947D01*
X7308037Y668223D01*
X7310526Y663905D01*
X7313320Y660044D01*
X7316419Y656590D01*
X7319822Y653592D01*
X7323531Y651052D01*
X7327544Y648970D01*
X7331811Y647293D01*
X7336383Y646125D01*
X7341158Y645414D01*
X7346188Y645160D01*
X7351166Y645464D01*
X7355992Y646430D01*
X7360615Y647852D01*
X7365034Y649782D01*
X7369200Y652119D01*
X7373162Y654812D01*
X7376820Y657758D01*
X7380224Y660908D01*
X7380731Y660908D01*
X7382256Y647700D01*
X7395972Y647700D01*
X7395972Y809498D01*
G37*
G36*
X5194046Y808736D02*
G01*
X5131308Y611632D01*
X5143500Y611632D01*
X5206238Y808736D01*
G37*
G36*
X6621780Y808736D02*
G01*
X6559042Y611632D01*
X6571234Y611632D01*
X6633972Y808736D01*
G37*
G36*
X7442708Y803656D02*
G01*
X7437881Y802894D01*
X7434173Y800658D01*
X7431836Y797102D01*
X7431024Y792480D01*
X7431836Y787704D01*
X7434173Y784098D01*
X7437881Y781812D01*
X7442708Y781050D01*
X7447127Y781812D01*
X7450683Y784098D01*
X7453020Y787704D01*
X7453884Y792480D01*
X7453020Y797102D01*
X7450683Y800658D01*
X7447127Y802894D01*
G37*
G36*
X4570476Y799084D02*
G01*
X4564024Y798728D01*
X4557928Y797763D01*
X4552188Y796188D01*
X4546904Y794054D01*
X4542028Y791311D01*
X4537710Y788111D01*
X4533950Y784453D01*
X4530750Y780338D01*
X4528210Y775817D01*
X4526330Y770940D01*
X4525162Y765759D01*
X4524756Y760222D01*
X4525467Y752652D01*
X4527499Y746048D01*
X4530648Y740359D01*
X4534611Y735482D01*
X4539284Y731316D01*
X4544364Y727811D01*
X4549648Y724865D01*
X4576572Y712978D01*
X4586528Y708253D01*
X4590846Y705713D01*
X4594606Y702868D01*
X4597704Y699566D01*
X4599990Y695706D01*
X4601464Y691083D01*
X4601972Y685546D01*
X4601413Y680059D01*
X4599686Y675132D01*
X4596942Y670712D01*
X4593234Y667004D01*
X4588510Y664006D01*
X4582922Y661771D01*
X4576470Y660349D01*
X4569206Y659892D01*
X4563262Y660247D01*
X4557471Y661212D01*
X4551781Y662838D01*
X4546396Y665022D01*
X4541215Y667715D01*
X4536287Y670915D01*
X4531766Y674624D01*
X4527550Y678688D01*
X4517390Y667258D01*
X4522368Y662381D01*
X4527854Y658012D01*
X4533747Y654253D01*
X4540046Y651052D01*
X4546701Y648512D01*
X4553762Y646684D01*
X4561179Y645566D01*
X4568952Y645160D01*
X4576368Y645515D01*
X4583328Y646633D01*
X4589729Y648360D01*
X4595571Y650748D01*
X4600854Y653745D01*
X4605477Y657250D01*
X4609490Y661212D01*
X4612843Y665632D01*
X4615484Y670458D01*
X4617415Y675640D01*
X4618583Y681075D01*
X4618990Y686816D01*
X4618380Y694537D01*
X4616551Y701294D01*
X4613656Y707136D01*
X4609896Y712165D01*
X4605274Y716483D01*
X4600041Y720242D01*
X4594199Y723544D01*
X4588002Y726440D01*
X4562144Y737514D01*
X4557826Y739648D01*
X4553712Y741984D01*
X4549902Y744728D01*
X4546600Y747928D01*
X4544060Y751738D01*
X4542383Y756208D01*
X4541774Y761492D01*
X4542282Y766470D01*
X4543806Y770940D01*
X4546295Y774852D01*
X4549648Y778154D01*
X4553813Y780796D01*
X4558690Y782726D01*
X4564278Y783945D01*
X4570476Y784352D01*
X4575657Y784098D01*
X4580585Y783336D01*
X4585258Y782116D01*
X4589627Y780491D01*
X4593844Y778408D01*
X4597755Y775970D01*
X4601514Y773226D01*
X4605020Y770128D01*
X4613910Y780796D01*
X4609846Y784656D01*
X4605375Y788162D01*
X4600448Y791260D01*
X4595164Y793953D01*
X4589475Y796086D01*
X4583430Y797712D01*
X4577080Y798728D01*
G37*
G36*
X4957318Y799084D02*
G01*
X4950612Y798677D01*
X4944414Y797509D01*
X4938623Y795629D01*
X4933238Y793089D01*
X4928108Y789940D01*
X4923231Y786231D01*
X4918506Y781964D01*
X4913884Y777240D01*
X4923790Y768096D01*
X4927041Y771702D01*
X4930546Y775004D01*
X4934254Y778002D01*
X4938115Y780592D01*
X4942230Y782675D01*
X4946497Y784301D01*
X4950968Y785266D01*
X4955540Y785622D01*
X4962296Y785012D01*
X4968087Y783285D01*
X4972964Y780542D01*
X4976876Y776833D01*
X4979924Y772312D01*
X4982057Y767080D01*
X4983327Y761238D01*
X4983734Y754888D01*
X4983581Y751027D01*
X4982311Y743000D01*
X4981143Y738886D01*
X4979670Y734669D01*
X4977892Y730402D01*
X4975758Y725982D01*
X4973269Y721461D01*
X4967224Y712165D01*
X4959756Y702360D01*
X4955489Y697230D01*
X4945786Y686663D01*
X4934610Y675487D01*
X4914900Y657606D01*
X4914900Y647700D01*
X5007102Y647700D01*
X5007102Y661924D01*
X4958537Y661822D01*
X4940046Y660654D01*
X4950561Y670814D01*
X4960213Y680821D01*
X4969002Y690575D01*
X4976825Y700176D01*
X4983632Y709676D01*
X4989372Y719023D01*
X4993894Y728268D01*
X4995722Y732891D01*
X4997246Y737463D01*
X4998415Y742035D01*
X4999278Y746556D01*
X4999837Y751128D01*
X4999990Y755650D01*
X4999634Y762050D01*
X4998669Y768045D01*
X4997043Y773582D01*
X4994808Y778662D01*
X4991963Y783234D01*
X4988560Y787247D01*
X4984597Y790752D01*
X4980127Y793699D01*
X4975148Y796036D01*
X4969662Y797712D01*
X4963718Y798728D01*
G37*
G36*
X6944614Y799084D02*
G01*
X6938162Y798728D01*
X6932015Y797763D01*
X6926275Y796188D01*
X6920941Y794054D01*
X6916064Y791311D01*
X6911695Y788111D01*
X6907885Y784453D01*
X6904685Y780338D01*
X6902094Y775817D01*
X6900214Y770940D01*
X6899046Y765759D01*
X6898640Y760222D01*
X6899351Y752652D01*
X6901434Y746048D01*
X6904583Y740359D01*
X6908596Y735482D01*
X6913270Y731316D01*
X6918350Y727811D01*
X6923633Y724865D01*
X6928866Y722376D01*
X6955637Y710641D01*
X6960412Y708253D01*
X6964730Y705713D01*
X6968490Y702868D01*
X6971588Y699566D01*
X6973874Y695706D01*
X6975348Y691083D01*
X6975856Y685546D01*
X6975297Y680059D01*
X6973570Y675132D01*
X6970826Y670712D01*
X6967118Y667004D01*
X6962394Y664006D01*
X6956806Y661771D01*
X6950354Y660349D01*
X6943090Y659892D01*
X6937248Y660247D01*
X6931456Y661212D01*
X6925868Y662838D01*
X6920433Y665022D01*
X6915251Y667715D01*
X6910324Y670915D01*
X6905701Y674624D01*
X6901434Y678688D01*
X6891274Y667258D01*
X6896353Y662381D01*
X6901840Y658012D01*
X6907733Y654253D01*
X6913981Y651052D01*
X6920687Y648512D01*
X6927697Y646684D01*
X6935114Y645566D01*
X6942836Y645160D01*
X6950252Y645515D01*
X6957212Y646633D01*
X6963613Y648360D01*
X6969455Y650748D01*
X6974738Y653745D01*
X6979361Y657250D01*
X6983374Y661212D01*
X6986727Y665632D01*
X6989368Y670458D01*
X6991299Y675640D01*
X6992467Y681075D01*
X6992874Y686816D01*
X6992264Y694537D01*
X6990486Y701294D01*
X6987641Y707136D01*
X6983882Y712165D01*
X6979361Y716483D01*
X6974128Y720242D01*
X6968337Y723544D01*
X6962140Y726440D01*
X6936181Y737514D01*
X6927646Y741984D01*
X6923836Y744728D01*
X6920534Y747928D01*
X6917944Y751738D01*
X6916267Y756208D01*
X6915658Y761492D01*
X6916216Y766470D01*
X6917740Y770940D01*
X6920280Y774852D01*
X6923684Y778154D01*
X6927850Y780796D01*
X6932777Y782726D01*
X6938416Y783945D01*
X6944614Y784352D01*
X6949795Y784098D01*
X6954672Y783336D01*
X6959295Y782116D01*
X6963664Y780491D01*
X6967778Y778408D01*
X6971690Y775970D01*
X6975398Y773226D01*
X6978903Y770128D01*
X6987794Y780796D01*
X6983730Y784656D01*
X6979259Y788162D01*
X6974331Y791260D01*
X6969048Y793953D01*
X6963409Y796086D01*
X6957415Y797712D01*
X6951167Y798728D01*
G37*
G36*
X7700264Y799084D02*
G01*
X7693812Y798728D01*
X7687665Y797763D01*
X7681925Y796188D01*
X7676591Y794054D01*
X7671714Y791311D01*
X7667345Y788111D01*
X7663535Y784453D01*
X7660335Y780338D01*
X7657744Y775817D01*
X7655864Y770940D01*
X7654696Y765759D01*
X7654290Y760222D01*
X7655001Y752652D01*
X7657084Y746048D01*
X7660233Y740359D01*
X7664246Y735482D01*
X7668920Y731316D01*
X7674000Y727811D01*
X7679283Y724865D01*
X7684516Y722376D01*
X7711287Y710641D01*
X7716062Y708253D01*
X7720380Y705713D01*
X7724140Y702868D01*
X7727238Y699566D01*
X7729524Y695706D01*
X7730998Y691083D01*
X7731506Y685546D01*
X7730947Y680059D01*
X7729220Y675132D01*
X7726476Y670712D01*
X7722768Y667004D01*
X7718044Y664006D01*
X7712456Y661771D01*
X7706004Y660349D01*
X7698740Y659892D01*
X7692898Y660247D01*
X7687106Y661212D01*
X7681518Y662838D01*
X7676083Y665022D01*
X7670901Y667715D01*
X7665974Y670915D01*
X7661351Y674624D01*
X7657084Y678688D01*
X7646924Y667258D01*
X7652003Y662381D01*
X7657490Y658012D01*
X7663383Y654253D01*
X7669682Y651052D01*
X7676388Y648512D01*
X7683449Y646684D01*
X7690916Y645566D01*
X7698740Y645160D01*
X7706106Y645515D01*
X7713014Y646633D01*
X7719364Y648360D01*
X7725206Y650748D01*
X7730439Y653745D01*
X7735062Y657250D01*
X7739075Y661212D01*
X7742377Y665632D01*
X7745018Y670458D01*
X7746949Y675640D01*
X7748117Y681075D01*
X7748524Y686816D01*
X7747914Y694537D01*
X7746136Y701294D01*
X7743291Y707136D01*
X7739532Y712165D01*
X7735011Y716483D01*
X7729778Y720242D01*
X7723987Y723544D01*
X7717790Y726440D01*
X7691831Y737514D01*
X7683296Y741984D01*
X7679486Y744728D01*
X7676184Y747928D01*
X7673594Y751738D01*
X7671917Y756208D01*
X7671308Y761492D01*
X7671866Y766470D01*
X7673390Y770940D01*
X7675930Y774852D01*
X7679334Y778154D01*
X7683500Y780796D01*
X7688427Y782726D01*
X7694066Y783945D01*
X7700264Y784352D01*
X7705445Y784098D01*
X7710322Y783336D01*
X7714945Y782116D01*
X7719314Y780491D01*
X7723428Y778408D01*
X7727340Y775970D01*
X7731048Y773226D01*
X7734553Y770128D01*
X7743444Y780796D01*
X7739380Y784656D01*
X7734909Y788162D01*
X7729981Y791260D01*
X7724698Y793953D01*
X7719059Y796086D01*
X7713065Y797712D01*
X7706817Y798728D01*
G37*
G36*
X4389628Y796544D02*
G01*
X4389628Y782574D01*
X4424680Y782574D01*
X4431233Y782320D01*
X4437329Y781558D01*
X4443018Y780288D01*
X4448251Y778560D01*
X4453077Y776325D01*
X4457496Y773633D01*
X4461459Y770483D01*
X4465015Y766876D01*
X4468114Y762812D01*
X4470806Y758342D01*
X4473092Y753414D01*
X4474972Y748080D01*
X4476394Y742289D01*
X4477461Y736142D01*
X4478070Y729589D01*
X4478274Y722630D01*
X4478070Y715721D01*
X4477461Y709117D01*
X4476394Y702919D01*
X4474972Y697077D01*
X4473092Y691642D01*
X4470806Y686612D01*
X4468114Y681990D01*
X4465015Y677824D01*
X4461459Y674065D01*
X4457496Y670814D01*
X4453077Y667969D01*
X4448251Y665683D01*
X4443018Y663803D01*
X4437329Y662482D01*
X4431233Y661670D01*
X4424680Y661416D01*
X4406392Y661416D01*
X4406392Y782574D01*
X4389628Y782574D01*
X4389628Y647700D01*
X4426712Y647700D01*
X4433316Y647903D01*
X4439615Y648512D01*
X4445609Y649579D01*
X4451248Y651002D01*
X4456531Y652830D01*
X4461510Y655066D01*
X4466183Y657656D01*
X4470450Y660603D01*
X4474464Y663956D01*
X4478070Y667664D01*
X4481372Y671677D01*
X4484319Y676046D01*
X4486960Y680770D01*
X4489246Y685850D01*
X4491126Y691184D01*
X4492752Y696874D01*
X4493971Y702868D01*
X4494834Y709168D01*
X4495393Y715772D01*
X4495546Y722630D01*
X4495393Y729488D01*
X4494834Y736041D01*
X4493971Y742340D01*
X4492701Y748284D01*
X4491126Y753872D01*
X4489196Y759206D01*
X4486910Y764184D01*
X4484319Y768858D01*
X4481322Y773125D01*
X4478020Y777138D01*
X4474362Y780745D01*
X4470349Y783996D01*
X4466031Y786892D01*
X4461357Y789432D01*
X4456328Y791565D01*
X4450994Y793343D01*
X4445304Y794715D01*
X4439259Y795731D01*
X4432909Y796340D01*
X4426204Y796544D01*
G37*
G36*
X4647946Y796544D02*
G01*
X4647946Y708152D01*
X4648200Y699617D01*
X4649012Y691794D01*
X4650282Y684682D01*
X4652060Y678281D01*
X4654245Y672490D01*
X4656886Y667359D01*
X4659884Y662787D01*
X4663287Y658825D01*
X4666996Y655421D01*
X4671060Y652576D01*
X4675378Y650189D01*
X4680000Y648309D01*
X4684826Y646887D01*
X4689856Y645922D01*
X4695139Y645363D01*
X4700524Y645160D01*
X4705959Y645363D01*
X4711242Y645922D01*
X4716322Y646887D01*
X4721199Y648309D01*
X4725822Y650189D01*
X4730191Y652576D01*
X4734255Y655421D01*
X4738014Y658825D01*
X4741367Y662787D01*
X4744415Y667359D01*
X4747056Y672490D01*
X4749241Y678281D01*
X4751019Y684682D01*
X4752289Y691794D01*
X4753102Y699617D01*
X4753356Y708152D01*
X4753356Y796544D01*
X4737100Y796544D01*
X4737100Y707898D01*
X4736744Y699262D01*
X4735779Y691642D01*
X4734255Y684987D01*
X4732121Y679196D01*
X4729530Y674268D01*
X4726432Y670153D01*
X4722926Y666851D01*
X4719015Y664210D01*
X4714798Y662228D01*
X4710277Y660908D01*
X4705502Y660146D01*
X4700524Y659892D01*
X4695698Y660146D01*
X4691075Y660908D01*
X4686706Y662228D01*
X4682591Y664210D01*
X4678832Y666851D01*
X4675428Y670153D01*
X4672380Y674268D01*
X4669840Y679196D01*
X4667758Y684987D01*
X4666234Y691642D01*
X4665268Y699262D01*
X4664964Y707898D01*
X4664964Y796544D01*
G37*
G36*
X4793996Y796544D02*
G01*
X4793996Y783082D01*
X4834636Y783082D01*
X4843221Y782726D01*
X4850638Y781710D01*
X4856937Y779932D01*
X4862068Y777392D01*
X4866081Y773938D01*
X4868926Y769569D01*
X4870653Y764286D01*
X4871212Y757936D01*
X4870704Y752398D01*
X4869129Y747420D01*
X4866436Y743102D01*
X4862525Y739444D01*
X4857343Y736498D01*
X4850841Y734314D01*
X4842967Y732993D01*
X4833620Y732536D01*
X4811014Y732536D01*
X4811014Y783082D01*
X4793996Y783082D01*
X4793996Y719582D01*
X4837684Y719582D01*
X4844237Y719378D01*
X4850282Y718870D01*
X4855819Y717956D01*
X4860848Y716635D01*
X4865319Y714959D01*
X4869230Y712876D01*
X4872583Y710438D01*
X4875326Y707542D01*
X4877511Y704240D01*
X4879086Y700582D01*
X4880051Y696417D01*
X4880356Y691896D01*
X4880000Y686816D01*
X4879035Y682193D01*
X4877409Y678078D01*
X4875174Y674420D01*
X4872329Y671271D01*
X4868926Y668528D01*
X4864963Y666242D01*
X4860493Y664413D01*
X4855514Y662940D01*
X4850028Y661974D01*
X4844084Y661365D01*
X4837684Y661162D01*
X4811014Y661162D01*
X4811014Y719582D01*
X4793996Y719582D01*
X4793996Y647700D01*
X4840478Y647700D01*
X4846574Y647852D01*
X4852466Y648360D01*
X4858004Y649224D01*
X4863287Y650392D01*
X4868265Y651916D01*
X4872837Y653796D01*
X4877104Y656031D01*
X4881016Y658571D01*
X4884521Y661466D01*
X4887620Y664667D01*
X4890312Y668223D01*
X4892497Y672134D01*
X4894275Y676351D01*
X4895545Y680974D01*
X4896358Y685850D01*
X4896612Y691134D01*
X4896053Y698347D01*
X4894376Y704799D01*
X4891684Y710438D01*
X4888077Y715314D01*
X4883658Y719429D01*
X4878374Y722731D01*
X4872431Y725220D01*
X4865878Y726948D01*
X4865878Y727710D01*
X4870907Y729894D01*
X4875326Y732739D01*
X4879136Y736142D01*
X4882286Y740105D01*
X4884724Y744575D01*
X4886502Y749401D01*
X4887620Y754532D01*
X4887976Y759968D01*
X4887569Y766114D01*
X4886299Y771652D01*
X4884267Y776630D01*
X4881524Y780948D01*
X4878070Y784758D01*
X4873904Y787958D01*
X4869129Y790651D01*
X4863795Y792835D01*
X4857851Y794461D01*
X4851450Y795629D01*
X4844542Y796340D01*
X4837176Y796544D01*
G37*
G36*
X5039868Y796544D02*
G01*
X5035042Y727456D01*
X5044186Y721614D01*
X5050332Y725474D01*
X5056174Y728268D01*
X5062321Y729945D01*
X5069332Y730504D01*
X5076240Y729894D01*
X5082489Y728116D01*
X5087924Y725170D01*
X5092547Y721156D01*
X5096306Y716127D01*
X5099050Y710133D01*
X5100777Y703224D01*
X5101336Y695452D01*
X5100675Y687476D01*
X5098745Y680313D01*
X5095748Y674065D01*
X5091734Y668782D01*
X5086858Y664565D01*
X5081320Y661466D01*
X5075174Y659536D01*
X5068570Y658876D01*
X5062270Y659231D01*
X5056581Y660298D01*
X5051348Y661924D01*
X5046573Y664006D01*
X5042306Y666546D01*
X5038344Y669391D01*
X5034788Y672439D01*
X5031486Y675640D01*
X5023104Y664718D01*
X5027015Y661009D01*
X5031384Y657504D01*
X5036210Y654151D01*
X5041646Y651205D01*
X5047691Y648716D01*
X5054396Y646836D01*
X5061864Y645617D01*
X5070094Y645160D01*
X5076190Y645515D01*
X5082184Y646684D01*
X5087975Y648512D01*
X5093512Y651103D01*
X5098643Y654405D01*
X5103317Y658368D01*
X5107533Y663041D01*
X5111140Y668324D01*
X5114086Y674319D01*
X5116271Y680923D01*
X5117642Y688136D01*
X5118100Y695960D01*
X5117693Y703783D01*
X5116474Y710844D01*
X5114594Y717194D01*
X5112004Y722833D01*
X5108752Y727760D01*
X5104993Y731977D01*
X5100675Y735533D01*
X5095951Y738428D01*
X5090769Y740664D01*
X5085283Y742238D01*
X5079441Y743153D01*
X5073396Y743458D01*
X5066893Y743000D01*
X5061000Y741730D01*
X5055514Y739698D01*
X5050282Y737108D01*
X5054346Y782320D01*
X5110988Y782320D01*
X5110988Y796544D01*
G37*
G36*
X5215128Y796544D02*
G01*
X5215128Y782320D01*
X5260340Y782320D01*
X5260340Y647700D01*
X5277612Y647700D01*
X5277612Y782320D01*
X5323078Y782320D01*
X5323078Y796544D01*
G37*
G36*
X6212332Y796544D02*
G01*
X6253226Y724408D01*
X6209792Y647700D01*
X6227318Y647700D01*
X6249924Y689102D01*
X6262116Y713232D01*
X6262878Y713232D01*
X6275832Y689102D01*
X6298692Y647700D01*
X6316980Y647700D01*
X6273292Y723646D01*
X6314186Y796544D01*
X6296660Y796544D01*
X6273038Y751992D01*
X6265164Y735584D01*
X6264148Y735584D01*
X6257899Y747014D01*
X6252210Y756920D01*
X6231128Y796544D01*
G37*
G36*
X6341364Y796544D02*
G01*
X6341364Y647700D01*
X6423914Y647700D01*
X6423914Y661924D01*
X6358128Y661924D01*
X6358128Y796544D01*
G37*
G36*
X6450076Y796544D02*
G01*
X6450076Y782828D01*
X6493002Y782828D01*
X6501536Y782472D01*
X6509004Y781354D01*
X6515404Y779424D01*
X6520738Y776630D01*
X6524904Y772820D01*
X6527901Y768045D01*
X6529730Y762152D01*
X6530340Y755142D01*
X6529730Y748182D01*
X6527901Y742188D01*
X6524904Y737108D01*
X6520738Y732993D01*
X6515404Y729792D01*
X6509004Y727506D01*
X6501536Y726135D01*
X6493002Y725678D01*
X6467094Y725678D01*
X6467094Y782828D01*
X6450076Y782828D01*
X6450076Y647700D01*
X6467094Y647700D01*
X6467094Y711962D01*
X6494780Y711962D01*
X6532118Y647700D01*
X6550914Y647700D01*
X6512559Y713486D01*
X6517640Y714857D01*
X6522364Y716635D01*
X6526733Y718769D01*
X6530797Y721258D01*
X6534404Y724103D01*
X6537655Y727354D01*
X6540449Y731012D01*
X6542785Y735025D01*
X6544614Y739444D01*
X6545986Y744270D01*
X6546799Y749503D01*
X6547104Y755142D01*
X6546646Y762355D01*
X6545427Y768807D01*
X6543344Y774446D01*
X6540500Y779424D01*
X6536994Y783691D01*
X6532778Y787247D01*
X6527952Y790244D01*
X6522516Y792581D01*
X6516573Y794359D01*
X6510070Y795578D01*
X6503162Y796290D01*
X6495796Y796544D01*
G37*
G36*
X6643116Y796544D02*
G01*
X6643116Y782320D01*
X6688328Y782320D01*
X6688328Y647700D01*
X6705346Y647700D01*
X6705346Y782320D01*
X6750812Y782320D01*
X6750812Y796544D01*
G37*
G36*
X6777990Y796544D02*
G01*
X6777990Y782828D01*
X6820916Y782828D01*
X6829348Y782472D01*
X6836765Y781354D01*
X6843166Y779424D01*
X6848398Y776630D01*
X6852564Y772820D01*
X6855561Y768045D01*
X6857390Y762152D01*
X6858000Y755142D01*
X6857390Y748182D01*
X6855561Y742188D01*
X6852564Y737108D01*
X6848398Y732993D01*
X6843166Y729792D01*
X6836765Y727506D01*
X6829348Y726135D01*
X6820916Y725678D01*
X6794753Y725678D01*
X6794753Y782828D01*
X6777990Y782828D01*
X6777990Y647700D01*
X6794753Y647700D01*
X6794753Y711962D01*
X6822694Y711962D01*
X6859778Y647700D01*
X6878828Y647700D01*
X6840220Y713486D01*
X6845350Y714857D01*
X6850075Y716635D01*
X6854494Y718769D01*
X6858558Y721258D01*
X6862165Y724103D01*
X6865416Y727354D01*
X6868159Y731012D01*
X6870496Y735025D01*
X6872325Y739444D01*
X6873646Y744270D01*
X6874509Y749503D01*
X6874764Y755142D01*
X6874306Y762355D01*
X6873087Y768807D01*
X6871004Y774446D01*
X6868159Y779424D01*
X6864654Y783691D01*
X6860438Y787247D01*
X6855612Y790244D01*
X6850176Y792581D01*
X6844233Y794359D01*
X6837730Y795578D01*
X6830822Y796290D01*
X6823456Y796544D01*
G37*
G36*
X7099046Y796544D02*
G01*
X7068791Y707898D01*
X7084568Y707898D01*
X7100112Y756869D01*
X7107428Y782320D01*
X7108444Y782320D01*
X7115860Y756970D01*
X7123684Y732028D01*
X7131558Y707898D01*
X7068791Y707898D01*
X7048246Y647700D01*
X7065009Y647700D01*
X7080250Y694690D01*
X7135875Y694690D01*
X7150608Y647700D01*
X7168388Y647700D01*
X7117588Y796544D01*
G37*
G36*
X5991606Y788416D02*
G01*
X5989574Y757428D01*
X5972302Y756412D01*
X5972302Y743712D01*
X5988812Y743712D01*
X5988812Y680720D01*
X5989167Y673049D01*
X5990336Y666140D01*
X5992368Y660095D01*
X5995365Y654964D01*
X5999480Y650798D01*
X6004763Y647700D01*
X6011367Y645820D01*
X6019292Y645160D01*
X6024016Y645515D01*
X6028944Y646430D01*
X6038596Y649224D01*
X6035548Y661670D01*
X6029147Y659587D01*
X6025794Y658876D01*
X6022594Y658622D01*
X6014313Y660095D01*
X6009030Y664362D01*
X6006185Y671169D01*
X6005322Y680212D01*
X6005322Y743712D01*
X6035548Y743712D01*
X6035548Y757428D01*
X6005322Y757428D01*
X6005322Y788416D01*
G37*
G36*
X5372100Y760222D02*
G01*
X5365648Y759866D01*
X5359400Y758850D01*
X5353456Y757326D01*
X5347817Y755345D01*
X5342534Y753110D01*
X5333288Y748182D01*
X5329428Y745744D01*
X5336286Y734314D01*
X5343144Y738682D01*
X5351119Y742594D01*
X5359958Y745439D01*
X5369560Y746506D01*
X5375960Y745845D01*
X5381193Y743966D01*
X5385257Y741070D01*
X5388406Y737311D01*
X5390591Y732840D01*
X5392013Y727862D01*
X5392775Y722528D01*
X5392928Y717042D01*
X5376418Y714756D01*
X5369102Y713333D01*
X5362346Y711758D01*
X5356199Y709980D01*
X5350611Y708050D01*
X5345633Y705866D01*
X5341162Y703529D01*
X5337302Y700938D01*
X5333949Y698093D01*
X5331104Y695045D01*
X5328869Y691743D01*
X5327091Y688187D01*
X5325821Y684377D01*
X5325110Y680262D01*
X5324915Y676910D01*
X5340858Y676910D01*
X5341162Y680516D01*
X5342026Y683920D01*
X5343550Y687120D01*
X5345734Y690067D01*
X5348630Y692810D01*
X5352338Y695299D01*
X5356809Y697585D01*
X5362143Y699668D01*
X5368391Y701497D01*
X5375554Y703173D01*
X5383733Y704646D01*
X5392928Y705866D01*
X5392928Y673608D01*
X5384800Y667054D01*
X5377027Y662279D01*
X5369306Y659333D01*
X5361178Y658368D01*
X5353304Y659384D01*
X5346852Y662686D01*
X5342483Y668426D01*
X5340858Y676910D01*
X5324915Y676910D01*
X5324856Y675894D01*
X5325465Y668883D01*
X5327294Y662736D01*
X5330139Y657453D01*
X5334000Y653084D01*
X5338673Y649681D01*
X5344160Y647192D01*
X5350256Y645668D01*
X5356860Y645160D01*
X5361940Y645464D01*
X5366918Y646430D01*
X5371795Y647903D01*
X5376519Y649833D01*
X5381091Y652170D01*
X5385460Y654913D01*
X5389676Y657910D01*
X5393690Y661162D01*
X5394452Y661162D01*
X5395722Y647700D01*
X5409438Y647700D01*
X5409438Y715772D01*
X5409234Y722172D01*
X5408523Y728218D01*
X5407355Y733856D01*
X5405678Y739038D01*
X5403494Y743712D01*
X5400751Y747877D01*
X5397500Y751535D01*
X5393639Y754583D01*
X5389168Y756970D01*
X5384139Y758748D01*
X5378450Y759866D01*
G37*
G36*
X5476240Y760222D02*
G01*
X5467756Y759612D01*
X5460339Y757834D01*
X5453938Y755040D01*
X5448604Y751332D01*
X5444439Y746810D01*
X5441391Y741578D01*
X5439511Y735787D01*
X5438902Y729488D01*
X5439664Y723036D01*
X5441746Y717550D01*
X5445048Y712825D01*
X5449265Y708863D01*
X5454192Y705510D01*
X5459679Y702665D01*
X5465470Y700176D01*
X5480659Y694334D01*
X5484977Y692251D01*
X5488889Y689864D01*
X5492242Y687171D01*
X5494832Y684072D01*
X5496458Y680516D01*
X5497068Y676402D01*
X5495645Y669239D01*
X5491327Y663448D01*
X5484215Y659536D01*
X5474208Y658114D01*
X5464606Y659079D01*
X5456072Y661771D01*
X5448401Y665937D01*
X5441188Y671322D01*
X5432806Y660146D01*
X5436920Y657047D01*
X5441391Y654151D01*
X5446166Y651611D01*
X5451246Y649427D01*
X5456580Y647649D01*
X5462117Y646277D01*
X5467858Y645464D01*
X5473700Y645160D01*
X5482691Y645820D01*
X5490514Y647700D01*
X5497220Y650646D01*
X5502757Y654608D01*
X5507126Y659333D01*
X5510276Y664768D01*
X5512155Y670763D01*
X5512816Y677164D01*
X5512003Y684326D01*
X5509768Y690321D01*
X5506313Y695248D01*
X5501894Y699363D01*
X5496712Y702767D01*
X5490972Y705713D01*
X5469788Y714146D01*
X5462168Y718108D01*
X5456885Y723341D01*
X5454904Y730504D01*
X5456174Y736854D01*
X5460034Y742086D01*
X5466689Y745693D01*
X5476240Y747014D01*
X5483301Y746252D01*
X5489752Y744169D01*
X5495747Y741121D01*
X5501386Y737362D01*
X5509514Y748030D01*
X5502656Y752805D01*
X5494680Y756716D01*
X5485841Y759256D01*
G37*
G36*
X5583428Y760222D02*
G01*
X5578246Y759968D01*
X5573166Y759256D01*
X5568238Y758037D01*
X5563463Y756361D01*
X5558891Y754227D01*
X5554573Y751636D01*
X5550560Y748588D01*
X5546801Y745083D01*
X5543346Y741222D01*
X5540298Y736904D01*
X5537606Y732129D01*
X5535371Y726998D01*
X5533542Y721461D01*
X5532221Y715518D01*
X5531408Y709218D01*
X5531104Y702564D01*
X5531358Y695909D01*
X5532120Y689660D01*
X5533339Y683768D01*
X5535015Y678281D01*
X5537098Y673150D01*
X5539638Y668426D01*
X5542534Y664108D01*
X5545785Y660247D01*
X5549392Y656793D01*
X5553303Y653745D01*
X5557469Y651154D01*
X5561990Y649020D01*
X5566714Y647344D01*
X5571642Y646125D01*
X5576824Y645414D01*
X5582158Y645160D01*
X5587136Y645414D01*
X5592013Y646074D01*
X5596686Y647242D01*
X5601258Y648817D01*
X5605576Y650798D01*
X5609793Y653186D01*
X5613704Y655980D01*
X5617464Y659130D01*
X5610098Y670052D01*
X5604510Y665734D01*
X5598109Y662178D01*
X5591048Y659790D01*
X5583428Y658876D01*
X5578297Y659231D01*
X5573471Y660298D01*
X5569000Y662025D01*
X5564886Y664413D01*
X5561177Y667359D01*
X5557875Y670915D01*
X5554980Y674979D01*
X5552592Y679602D01*
X5550662Y684682D01*
X5549290Y690219D01*
X5548426Y696214D01*
X5548122Y702564D01*
X5548426Y708863D01*
X5549341Y714806D01*
X5550814Y720344D01*
X5552846Y725424D01*
X5555335Y729996D01*
X5558332Y734110D01*
X5561736Y737666D01*
X5565495Y740664D01*
X5569661Y743051D01*
X5574131Y744829D01*
X5578906Y745896D01*
X5583936Y746252D01*
X5590438Y745540D01*
X5596331Y743508D01*
X5601716Y740359D01*
X5606796Y736346D01*
X5615432Y747014D01*
X5609234Y752094D01*
X5601919Y756259D01*
X5593334Y759155D01*
G37*
G36*
X5680456Y760222D02*
G01*
X5673902Y759866D01*
X5667654Y758850D01*
X5661710Y757326D01*
X5656072Y755345D01*
X5650839Y753110D01*
X5646013Y750671D01*
X5637784Y745744D01*
X5644388Y734314D01*
X5651296Y738682D01*
X5659323Y742594D01*
X5668264Y745439D01*
X5677916Y746506D01*
X5684316Y745845D01*
X5689498Y743966D01*
X5693562Y741070D01*
X5696661Y737311D01*
X5698845Y732840D01*
X5700268Y727862D01*
X5701030Y722528D01*
X5701284Y717042D01*
X5684774Y714756D01*
X5677458Y713333D01*
X5670702Y711758D01*
X5664555Y709980D01*
X5658967Y708050D01*
X5653989Y705866D01*
X5649518Y703529D01*
X5645658Y700938D01*
X5642305Y698093D01*
X5639460Y695045D01*
X5637225Y691743D01*
X5635447Y688187D01*
X5634177Y684377D01*
X5633466Y680262D01*
X5633271Y676910D01*
X5649214Y676910D01*
X5649518Y680516D01*
X5650382Y683920D01*
X5651906Y687120D01*
X5654090Y690067D01*
X5656986Y692810D01*
X5660694Y695299D01*
X5665165Y697585D01*
X5670499Y699668D01*
X5676747Y701497D01*
X5683910Y703173D01*
X5692089Y704646D01*
X5701284Y705866D01*
X5701284Y673608D01*
X5693156Y667054D01*
X5685434Y662279D01*
X5677662Y659333D01*
X5669534Y658368D01*
X5661660Y659384D01*
X5655208Y662686D01*
X5650839Y668426D01*
X5649214Y676910D01*
X5633271Y676910D01*
X5633212Y675894D01*
X5633821Y668883D01*
X5635650Y662736D01*
X5638495Y657453D01*
X5642305Y653084D01*
X5646978Y649681D01*
X5652414Y647192D01*
X5658408Y645668D01*
X5664962Y645160D01*
X5670143Y645464D01*
X5675172Y646430D01*
X5679998Y647903D01*
X5684723Y649833D01*
X5689295Y652170D01*
X5693714Y654913D01*
X5697982Y657910D01*
X5702046Y661162D01*
X5702554Y661162D01*
X5704078Y647700D01*
X5717540Y647700D01*
X5717540Y715772D01*
X5717336Y722172D01*
X5716625Y728218D01*
X5715508Y733856D01*
X5713831Y739038D01*
X5711698Y743712D01*
X5709005Y747877D01*
X5705754Y751535D01*
X5701944Y754583D01*
X5697524Y756970D01*
X5692444Y758748D01*
X5686806Y759866D01*
G37*
G36*
X5803646Y760222D02*
G01*
X5798870Y759815D01*
X5794197Y758748D01*
X5789625Y757021D01*
X5785256Y754684D01*
X5781040Y751890D01*
X5776976Y748639D01*
X5773064Y745032D01*
X5769356Y741172D01*
X5768848Y741172D01*
X5767324Y757428D01*
X5753862Y757428D01*
X5753862Y647700D01*
X5770372Y647700D01*
X5770372Y727964D01*
X5777941Y735787D01*
X5785256Y741324D01*
X5792266Y744626D01*
X5798820Y745744D01*
X5804052Y745286D01*
X5808522Y743966D01*
X5812231Y741730D01*
X5815228Y738530D01*
X5817514Y734263D01*
X5819140Y729030D01*
X5820105Y722680D01*
X5820410Y715264D01*
X5820410Y647700D01*
X5836920Y647700D01*
X5836920Y727964D01*
X5844641Y735787D01*
X5851956Y741324D01*
X5859018Y744626D01*
X5865876Y745744D01*
X5870956Y745286D01*
X5875324Y743966D01*
X5878982Y741730D01*
X5881979Y738530D01*
X5884265Y734263D01*
X5885891Y729030D01*
X5886907Y722680D01*
X5887212Y715264D01*
X5887212Y647700D01*
X5903722Y647700D01*
X5903722Y717296D01*
X5903518Y724052D01*
X5902807Y730250D01*
X5901690Y735888D01*
X5900064Y740968D01*
X5897981Y745439D01*
X5895492Y749350D01*
X5892495Y752652D01*
X5888990Y755345D01*
X5885078Y757478D01*
X5880658Y759002D01*
X5875782Y759917D01*
X5870448Y760222D01*
X5865571Y759815D01*
X5860796Y758698D01*
X5856173Y756818D01*
X5851601Y754329D01*
X5847080Y751230D01*
X5842660Y747572D01*
X5838240Y743458D01*
X5833872Y738886D01*
X5832043Y743508D01*
X5829706Y747674D01*
X5826912Y751332D01*
X5823508Y754430D01*
X5819546Y756869D01*
X5814923Y758698D01*
X5809640Y759815D01*
G37*
G36*
X6099556Y760222D02*
G01*
X6094577Y759968D01*
X6089751Y759256D01*
X6085027Y758037D01*
X6080455Y756361D01*
X6076086Y754227D01*
X6071920Y751636D01*
X6068009Y748588D01*
X6064402Y745083D01*
X6061100Y741222D01*
X6058154Y736904D01*
X6055563Y732129D01*
X6053378Y726998D01*
X6051600Y721461D01*
X6050330Y715518D01*
X6049518Y709218D01*
X6049264Y702564D01*
X6066282Y702564D01*
X6066586Y708863D01*
X6067399Y714806D01*
X6068720Y720344D01*
X6070549Y725424D01*
X6072835Y729996D01*
X6075578Y734110D01*
X6078728Y737666D01*
X6082233Y740664D01*
X6086094Y743051D01*
X6090310Y744829D01*
X6094780Y745896D01*
X6099556Y746252D01*
X6104382Y745896D01*
X6108903Y744829D01*
X6113170Y743051D01*
X6117031Y740664D01*
X6120587Y737666D01*
X6123736Y734110D01*
X6126480Y729996D01*
X6128816Y725424D01*
X6130645Y720344D01*
X6131966Y714806D01*
X6132779Y708863D01*
X6133084Y702564D01*
X6132779Y696214D01*
X6131966Y690219D01*
X6130645Y684682D01*
X6128816Y679602D01*
X6126480Y674979D01*
X6123736Y670915D01*
X6120587Y667359D01*
X6117031Y664413D01*
X6113170Y662025D01*
X6108903Y660298D01*
X6104382Y659231D01*
X6099556Y658876D01*
X6094780Y659231D01*
X6090310Y660298D01*
X6086094Y662025D01*
X6082233Y664413D01*
X6078728Y667359D01*
X6075578Y670915D01*
X6072835Y674979D01*
X6070549Y679602D01*
X6068720Y684682D01*
X6067399Y690219D01*
X6066586Y696214D01*
X6066282Y702564D01*
X6049264Y702564D01*
X6049518Y695909D01*
X6050330Y689660D01*
X6051600Y683768D01*
X6053378Y678281D01*
X6055563Y673150D01*
X6058154Y668426D01*
X6061100Y664108D01*
X6064402Y660247D01*
X6068009Y656793D01*
X6071920Y653745D01*
X6076086Y651154D01*
X6080455Y649020D01*
X6085027Y647344D01*
X6089751Y646125D01*
X6094577Y645414D01*
X6099556Y645160D01*
X6104585Y645414D01*
X6109462Y646125D01*
X6114237Y647344D01*
X6118860Y649020D01*
X6123279Y651154D01*
X6127445Y653745D01*
X6131407Y656793D01*
X6135065Y660247D01*
X6138367Y664108D01*
X6141364Y668426D01*
X6144006Y673150D01*
X6146190Y678281D01*
X6147968Y683768D01*
X6149289Y689660D01*
X6150102Y695909D01*
X6150356Y702564D01*
X6150102Y709218D01*
X6149289Y715518D01*
X6147968Y721461D01*
X6146190Y726998D01*
X6144006Y732129D01*
X6141364Y736904D01*
X6138367Y741222D01*
X6135065Y745134D01*
X6131407Y748588D01*
X6127445Y751636D01*
X6123279Y754227D01*
X6118860Y756361D01*
X6114237Y758037D01*
X6109462Y759256D01*
X6104585Y759968D01*
G37*
G36*
X7530846Y760222D02*
G01*
X7525816Y759968D01*
X7520940Y759256D01*
X7516164Y758037D01*
X7511592Y756361D01*
X7507173Y754227D01*
X7503007Y751636D01*
X7499096Y748588D01*
X7495489Y745083D01*
X7492187Y741222D01*
X7489190Y736904D01*
X7486599Y732129D01*
X7484414Y726998D01*
X7482636Y721461D01*
X7481366Y715518D01*
X7480553Y709218D01*
X7480300Y702564D01*
X7497572Y702564D01*
X7497825Y708863D01*
X7498638Y714806D01*
X7500010Y720344D01*
X7501788Y725424D01*
X7504074Y729996D01*
X7506766Y734110D01*
X7509916Y737666D01*
X7513421Y740664D01*
X7517282Y743051D01*
X7521498Y744829D01*
X7526020Y745896D01*
X7530846Y746252D01*
X7535621Y745896D01*
X7540142Y744829D01*
X7544358Y743051D01*
X7548219Y740664D01*
X7551775Y737666D01*
X7554925Y734110D01*
X7557719Y729996D01*
X7560005Y725424D01*
X7561884Y720344D01*
X7563256Y714806D01*
X7564069Y708863D01*
X7564374Y702564D01*
X7564069Y696214D01*
X7563256Y690219D01*
X7561884Y684682D01*
X7560005Y679602D01*
X7557719Y674979D01*
X7554925Y670915D01*
X7551775Y667359D01*
X7548219Y664413D01*
X7544358Y662025D01*
X7540142Y660298D01*
X7535621Y659231D01*
X7530846Y658876D01*
X7526020Y659231D01*
X7521498Y660298D01*
X7517282Y662025D01*
X7513421Y664413D01*
X7509916Y667359D01*
X7506766Y670915D01*
X7504074Y674979D01*
X7501788Y679602D01*
X7500010Y684682D01*
X7498638Y690219D01*
X7497825Y696214D01*
X7497572Y702564D01*
X7480300Y702564D01*
X7480553Y695909D01*
X7481366Y689660D01*
X7482636Y683768D01*
X7484414Y678281D01*
X7486599Y673150D01*
X7489190Y668426D01*
X7492187Y664108D01*
X7495489Y660247D01*
X7499096Y656793D01*
X7503007Y653745D01*
X7507173Y651154D01*
X7511592Y649020D01*
X7516164Y647344D01*
X7520940Y646125D01*
X7525816Y645414D01*
X7530846Y645160D01*
X7535824Y645414D01*
X7540650Y646125D01*
X7545425Y647344D01*
X7549997Y649020D01*
X7554366Y651154D01*
X7558582Y653745D01*
X7562494Y656793D01*
X7566101Y660247D01*
X7569453Y664108D01*
X7572451Y668426D01*
X7575042Y673150D01*
X7577226Y678281D01*
X7579004Y683768D01*
X7580325Y689660D01*
X7581138Y695909D01*
X7581392Y702564D01*
X7581138Y709218D01*
X7580325Y715518D01*
X7579004Y721461D01*
X7577226Y726998D01*
X7575042Y732129D01*
X7572451Y736904D01*
X7569453Y741222D01*
X7566101Y745134D01*
X7562494Y748588D01*
X7558582Y751636D01*
X7554366Y754227D01*
X7549997Y756361D01*
X7545425Y758037D01*
X7540650Y759256D01*
X7535824Y759968D01*
G37*
G36*
X7948930Y760222D02*
G01*
X7944205Y759815D01*
X7939582Y758748D01*
X7935061Y757021D01*
X7930692Y754684D01*
X7926425Y751890D01*
X7922412Y748639D01*
X7918551Y745032D01*
X7914894Y741172D01*
X7914131Y741172D01*
X7912608Y757428D01*
X7899146Y757428D01*
X7899146Y647700D01*
X7915656Y647700D01*
X7915656Y727964D01*
X7923326Y735787D01*
X7930692Y741324D01*
X7937703Y744626D01*
X7944358Y745744D01*
X7949539Y745286D01*
X7953959Y743966D01*
X7957667Y741730D01*
X7960664Y738530D01*
X7963001Y734263D01*
X7964627Y729030D01*
X7965643Y722680D01*
X7965948Y715264D01*
X7965948Y647700D01*
X7982203Y647700D01*
X7982203Y727964D01*
X7989976Y735787D01*
X7997342Y741324D01*
X8004403Y744626D01*
X8011159Y745744D01*
X8016290Y745286D01*
X8020710Y743966D01*
X8024368Y741730D01*
X8027365Y738530D01*
X8029651Y734263D01*
X8031225Y729030D01*
X8032191Y722680D01*
X8032496Y715264D01*
X8032496Y647700D01*
X8049259Y647700D01*
X8049259Y717296D01*
X8049006Y724052D01*
X8048345Y730250D01*
X8047177Y735888D01*
X8045551Y740968D01*
X8043418Y745439D01*
X8040878Y749350D01*
X8037830Y752652D01*
X8034375Y755345D01*
X8030413Y757478D01*
X8025993Y759002D01*
X8021066Y759917D01*
X8015731Y760222D01*
X8010855Y759815D01*
X8006130Y758698D01*
X8001508Y756818D01*
X7996986Y754329D01*
X7992516Y751230D01*
X7988046Y747572D01*
X7983626Y743458D01*
X7979156Y738886D01*
X7977378Y743508D01*
X7975092Y747674D01*
X7972298Y751332D01*
X7968894Y754430D01*
X7964881Y756869D01*
X7960258Y758698D01*
X7954924Y759815D01*
G37*
G36*
X8135620Y760222D02*
G01*
X8130895Y759815D01*
X8126323Y758748D01*
X8121802Y757021D01*
X8117484Y754684D01*
X8113268Y751890D01*
X8109203Y748639D01*
X8105292Y745032D01*
X8101584Y741172D01*
X8101075Y741172D01*
X8099298Y757428D01*
X8085836Y757428D01*
X8085836Y647700D01*
X8102346Y647700D01*
X8102346Y727964D01*
X8110016Y735787D01*
X8117382Y741324D01*
X8124393Y744626D01*
X8131048Y745744D01*
X8136229Y745286D01*
X8140649Y743966D01*
X8144357Y741730D01*
X8147354Y738530D01*
X8149691Y734263D01*
X8151317Y729030D01*
X8152333Y722680D01*
X8152638Y715264D01*
X8152638Y647700D01*
X8169148Y647700D01*
X8169148Y727964D01*
X8176768Y735787D01*
X8184083Y741324D01*
X8191093Y744626D01*
X8197850Y745744D01*
X8202980Y745286D01*
X8207400Y743966D01*
X8211058Y741730D01*
X8214055Y738530D01*
X8216341Y734263D01*
X8217916Y729030D01*
X8218881Y722680D01*
X8219186Y715264D01*
X8219186Y647700D01*
X8235950Y647700D01*
X8235950Y717296D01*
X8235746Y724052D01*
X8235035Y730250D01*
X8233918Y735888D01*
X8232292Y740968D01*
X8230209Y745439D01*
X8227720Y749350D01*
X8224723Y752652D01*
X8221218Y755345D01*
X8217306Y757478D01*
X8212886Y759002D01*
X8208009Y759917D01*
X8202675Y760222D01*
X8197799Y759815D01*
X8193024Y758698D01*
X8188401Y756818D01*
X8183829Y754329D01*
X8179308Y751230D01*
X8174888Y747572D01*
X8170468Y743458D01*
X8166100Y738886D01*
X8164271Y743508D01*
X8161934Y747674D01*
X8159089Y751332D01*
X8155736Y754430D01*
X8151723Y756869D01*
X8147050Y758698D01*
X8141716Y759815D01*
G37*
G36*
X8313166Y760222D02*
G01*
X8308492Y759968D01*
X8303818Y759206D01*
X8299297Y757936D01*
X8294878Y756208D01*
X8290661Y754024D01*
X8286597Y751332D01*
X8282787Y748233D01*
X8279231Y744728D01*
X8275980Y740765D01*
X8273034Y736447D01*
X8270443Y731672D01*
X8268258Y726592D01*
X8266531Y721106D01*
X8265210Y715264D01*
X8264677Y711200D01*
X8280400Y711200D01*
X8281822Y719124D01*
X8284260Y726186D01*
X8287562Y732282D01*
X8291677Y737362D01*
X8296452Y741426D01*
X8301736Y744372D01*
X8307425Y746150D01*
X8313420Y746760D01*
X8319770Y746201D01*
X8325358Y744474D01*
X8330234Y741680D01*
X8334298Y737768D01*
X8337550Y732739D01*
X8339937Y726592D01*
X8341359Y719429D01*
X8341868Y711200D01*
X8264677Y711200D01*
X8264398Y709066D01*
X8264144Y702564D01*
X8264398Y695960D01*
X8265210Y689762D01*
X8266480Y683869D01*
X8268208Y678383D01*
X8270392Y673252D01*
X8272983Y668528D01*
X8275980Y664260D01*
X8279333Y660349D01*
X8282990Y656844D01*
X8287003Y653796D01*
X8291322Y651205D01*
X8295843Y649071D01*
X8300669Y647344D01*
X8305647Y646125D01*
X8310880Y645414D01*
X8316214Y645160D01*
X8321751Y645414D01*
X8326932Y646023D01*
X8331758Y647090D01*
X8336330Y648462D01*
X8340598Y650138D01*
X8344611Y652018D01*
X8352028Y656336D01*
X8345931Y667258D01*
X8339683Y663498D01*
X8333028Y660704D01*
X8325916Y658977D01*
X8318246Y658368D01*
X8312861Y658723D01*
X8307882Y659688D01*
X8303209Y661263D01*
X8298891Y663498D01*
X8295030Y666242D01*
X8291525Y669544D01*
X8288528Y673354D01*
X8285937Y677621D01*
X8283854Y682345D01*
X8282279Y687527D01*
X8281162Y693064D01*
X8280653Y699008D01*
X8355584Y699008D01*
X8356142Y703478D01*
X8356346Y708914D01*
X8356041Y716584D01*
X8355075Y723747D01*
X8353450Y730300D01*
X8351266Y736346D01*
X8348421Y741730D01*
X8345068Y746455D01*
X8341055Y750570D01*
X8336534Y753973D01*
X8331504Y756666D01*
X8325866Y758647D01*
X8319770Y759815D01*
G37*
G36*
X8431022Y760222D02*
G01*
X8426399Y759815D01*
X8421979Y758596D01*
X8417661Y756615D01*
X8413597Y753922D01*
X8409736Y750620D01*
X8406130Y746709D01*
X8402777Y742289D01*
X8399780Y737362D01*
X8399272Y737362D01*
X8397748Y757428D01*
X8384286Y757428D01*
X8384286Y647700D01*
X8400796Y647700D01*
X8400796Y719328D01*
X8403742Y725932D01*
X8406993Y731418D01*
X8410498Y735888D01*
X8414156Y739444D01*
X8417864Y742086D01*
X8421674Y743864D01*
X8425383Y744880D01*
X8428990Y745236D01*
X8434374Y744829D01*
X8439404Y743458D01*
X8442452Y757936D01*
X8439810Y759053D01*
X8437118Y759764D01*
X8434222Y760120D01*
G37*
G36*
X7185406Y757428D02*
G01*
X7185406Y687832D01*
X7185609Y681075D01*
X7186269Y674878D01*
X7187387Y669290D01*
X7188962Y664260D01*
X7190994Y659790D01*
X7193483Y655929D01*
X7196429Y652627D01*
X7199884Y649935D01*
X7203846Y647852D01*
X7208266Y646379D01*
X7213244Y645464D01*
X7218680Y645160D01*
X7224217Y645515D01*
X7229348Y646633D01*
X7234224Y648360D01*
X7238796Y650697D01*
X7243114Y653643D01*
X7247280Y657047D01*
X7251344Y660958D01*
X7255256Y665226D01*
X7255764Y665226D01*
X7257288Y647700D01*
X7271003Y647700D01*
X7271003Y757428D01*
X7254494Y757428D01*
X7254494Y678688D01*
X7250480Y674065D01*
X7246670Y670102D01*
X7242962Y666800D01*
X7239304Y664057D01*
X7235545Y662025D01*
X7231735Y660552D01*
X7227722Y659688D01*
X7223506Y659384D01*
X7218121Y659841D01*
X7213600Y661162D01*
X7209840Y663448D01*
X7206894Y666699D01*
X7204659Y670966D01*
X7203135Y676198D01*
X7202220Y682498D01*
X7201916Y689864D01*
X7201916Y757428D01*
G37*
G36*
X7434325Y757428D02*
G01*
X7434325Y647700D01*
X7450836Y647700D01*
X7450836Y757428D01*
G37*
G36*
X7775194Y757428D02*
G01*
X7775194Y687832D01*
X7775397Y681075D01*
X7776057Y674878D01*
X7777175Y669290D01*
X7778750Y664260D01*
X7780781Y659790D01*
X7783271Y655929D01*
X7786217Y652627D01*
X7789672Y649935D01*
X7793634Y647852D01*
X7798053Y646379D01*
X7803032Y645464D01*
X7808468Y645160D01*
X7814005Y645515D01*
X7819186Y646633D01*
X7824063Y648360D01*
X7828686Y650697D01*
X7833004Y653643D01*
X7837170Y657047D01*
X7841183Y660958D01*
X7845044Y665226D01*
X7845806Y665226D01*
X7847075Y647700D01*
X7860792Y647700D01*
X7860792Y757428D01*
X7844281Y757428D01*
X7844281Y678688D01*
X7840319Y674065D01*
X7836458Y670102D01*
X7832750Y666800D01*
X7829092Y664057D01*
X7825435Y662025D01*
X7821625Y660552D01*
X7817713Y659688D01*
X7813548Y659384D01*
X7808163Y659841D01*
X7803591Y661162D01*
X7799831Y663448D01*
X7796834Y666699D01*
X7794548Y670966D01*
X7792923Y676198D01*
X7792008Y682498D01*
X7791703Y689864D01*
X7791703Y757428D01*
G37*
D10*
X2325103Y3672789D02*
G01*
X2216137Y3672789D01*
X2325103Y3672789D02*
G01*
X2325103Y3636467D01*
X2320023Y3620719D01*
X2309609Y3610559D01*
X2299195Y3605225D01*
X2283447Y3600145D01*
X2257539Y3600145D01*
X2242045Y3605225D01*
X2231631Y3610559D01*
X2221217Y3620719D01*
X2216137Y3636467D01*
X2216137Y3672789D01*
X2309609Y3492957D02*
G01*
X2320023Y3503371D01*
X2325103Y3519119D01*
X2325103Y3539693D01*
X2320023Y3555441D01*
X2309609Y3565855D01*
X2299195Y3565855D01*
X2288781Y3560521D01*
X2283447Y3555441D01*
X2278367Y3545027D01*
X2267953Y3513785D01*
X2262873Y3503371D01*
X2257539Y3498291D01*
X2247125Y3492957D01*
X2231631Y3492957D01*
X2221217Y3503371D01*
X2216137Y3519119D01*
X2216137Y3539693D01*
X2221217Y3555441D01*
X2231631Y3565855D01*
X2325103Y3458667D02*
G01*
X2247125Y3458667D01*
X2231631Y3453587D01*
X2221217Y3443173D01*
X2216137Y3427679D01*
X2216137Y3417265D01*
X2221217Y3401517D01*
X2231631Y3391103D01*
X2247125Y3386023D01*
X2325103Y3386023D01*
X2325103Y3351733D02*
G01*
X2216137Y3351733D01*
X2325103Y3351733D02*
G01*
X2325103Y3304997D01*
X2320023Y3289249D01*
X2314689Y3284169D01*
X2304275Y3279089D01*
X2293861Y3279089D01*
X2283447Y3284169D01*
X2278367Y3289249D01*
X2273287Y3304997D01*
X2273287Y3351733D02*
G01*
X2273287Y3304997D01*
X2267953Y3289249D01*
X2262873Y3284169D01*
X2252459Y3279089D01*
X2236711Y3279089D01*
X2226297Y3284169D01*
X2221217Y3289249D01*
X2216137Y3304997D01*
X2216137Y3351733D01*
X2299195Y3239465D02*
G01*
X2304275Y3239465D01*
X2314689Y3234385D01*
X2320023Y3229051D01*
X2325103Y3218637D01*
X2325103Y3197809D01*
X2320023Y3187649D01*
X2314689Y3182315D01*
X2304275Y3177235D01*
X2293861Y3177235D01*
X2283447Y3182315D01*
X2267953Y3192729D01*
X2216137Y3244799D01*
X2216137Y3171901D01*
X2325103Y3075381D02*
G01*
X2325103Y3127197D01*
X2278367Y3132531D01*
X2283447Y3127197D01*
X2288781Y3111703D01*
X2288781Y3096209D01*
X2283447Y3080461D01*
X2273287Y3070047D01*
X2257539Y3064967D01*
X2247125Y3064967D01*
X2231631Y3070047D01*
X2221217Y3080461D01*
X2216137Y3096209D01*
X2216137Y3111703D01*
X2221217Y3127197D01*
X2226297Y3132531D01*
X2236711Y3137611D01*
X2262873Y3030677D02*
G01*
X2262873Y2937205D01*
X2325103Y2902915D02*
G01*
X2216137Y2902915D01*
X2325103Y2868625D02*
G01*
X2216137Y2868625D01*
X2325103Y2868625D02*
G01*
X2216137Y2795727D01*
X2325103Y2795727D02*
G01*
X2216137Y2795727D01*
D11*
X10686003Y5743176D02*
G01*
X10672287Y5736318D01*
X10651967Y5715998D01*
X10651967Y5859000D01*
X10210495Y5536575D02*
G01*
X10224211Y5522859D01*
X10244531Y5516001D01*
X10271963Y5516001D01*
X10292283Y5522859D01*
X10305999Y5536575D01*
X10305999Y5550037D01*
X10299141Y5563753D01*
X10292283Y5570611D01*
X10278567Y5577469D01*
X10237673Y5591185D01*
X10224211Y5597789D01*
X10217353Y5604647D01*
X10210495Y5618363D01*
X10210495Y5638683D01*
X10224211Y5652399D01*
X10244531Y5659257D01*
X10271963Y5659257D01*
X10292283Y5652399D01*
X10305999Y5638683D01*
X9726002Y5515998D02*
G01*
X9726002Y5659254D01*
X9726002Y5515998D02*
G01*
X9664534Y5515998D01*
X9644214Y5522856D01*
X9637356Y5529714D01*
X9630498Y5543176D01*
X9630498Y5556892D01*
X9637356Y5570608D01*
X9644214Y5577466D01*
X9664534Y5584070D01*
X9726002Y5584070D01*
X9678250Y5584070D02*
G01*
X9630498Y5659254D01*
X9349145Y5740036D02*
G01*
X9349145Y5733178D01*
X9342287Y5719716D01*
X9335429Y5712858D01*
X9321967Y5706000D01*
X9294535Y5706000D01*
X9281073Y5712858D01*
X9274215Y5719716D01*
X9267357Y5733178D01*
X9267357Y5746894D01*
X9274215Y5760610D01*
X9287677Y5780930D01*
X9356003Y5849256D01*
X9260499Y5849256D01*
X9842286Y6175997D02*
G01*
X9767356Y6175997D01*
X9808250Y6230607D01*
X9787930Y6230607D01*
X9774214Y6237465D01*
X9767356Y6244323D01*
X9760498Y6264643D01*
X9760498Y6278359D01*
X9767356Y6298679D01*
X9781072Y6312395D01*
X9801392Y6319253D01*
X9821966Y6319253D01*
X9842286Y6312395D01*
X9849144Y6305537D01*
X9856002Y6292075D01*
X9273895Y6700037D02*
G01*
X9280499Y6686321D01*
X9294215Y6672859D01*
X9307931Y6666001D01*
X9335109Y6666001D01*
X9348825Y6672859D01*
X9362541Y6686321D01*
X9369145Y6700037D01*
X9376003Y6720357D01*
X9376003Y6754647D01*
X9369145Y6774967D01*
X9362541Y6788683D01*
X9348825Y6802399D01*
X9335109Y6809003D01*
X9307931Y6809003D01*
X9294215Y6802399D01*
X9280499Y6788683D01*
X9273895Y6774967D01*
X9273895Y6754647D01*
X9307931Y6754647D02*
G01*
X9273895Y6754647D01*
X10518246Y5966000D02*
G01*
X10518246Y6109256D01*
X10565998Y5966000D02*
G01*
X10470494Y5966000D01*
X9428251Y5965997D02*
G01*
X9428251Y6109253D01*
X9476003Y5965997D02*
G01*
X9380499Y5965997D01*
D10*
X10026408Y7137069D02*
G01*
X10026408Y7054011D01*
X10021074Y7038263D01*
X10015994Y7033183D01*
X10005580Y7028103D01*
X9995166Y7028103D01*
X9984752Y7033183D01*
X9979418Y7038263D01*
X9974338Y7054011D01*
X9974338Y7064425D01*
X10060698Y7116241D02*
G01*
X10070858Y7121575D01*
X10086606Y7137069D01*
X10086606Y7028103D01*
X10120896Y7074839D02*
G01*
X10214368Y7074839D01*
X10248658Y7137069D02*
G01*
X10248658Y7028103D01*
X10248658Y7028103D02*
G01*
X10310888Y7028103D01*
D11*
X10686003Y2187176D02*
G01*
X10672287Y2180318D01*
X10651967Y2159998D01*
X10651967Y2303000D01*
X10210495Y1980575D02*
G01*
X10224211Y1966859D01*
X10244531Y1960001D01*
X10271963Y1960001D01*
X10292283Y1966859D01*
X10305999Y1980575D01*
X10305999Y1994037D01*
X10299141Y2007753D01*
X10292283Y2014611D01*
X10278567Y2021469D01*
X10237673Y2035185D01*
X10224211Y2041789D01*
X10217353Y2048647D01*
X10210495Y2062363D01*
X10210495Y2082683D01*
X10224211Y2096399D01*
X10244531Y2103257D01*
X10271963Y2103257D01*
X10292283Y2096399D01*
X10305999Y2082683D01*
X9726002Y1959998D02*
G01*
X9726002Y2103254D01*
X9726002Y1959998D02*
G01*
X9664534Y1959998D01*
X9644214Y1966856D01*
X9637356Y1973714D01*
X9630498Y1987176D01*
X9630498Y2000892D01*
X9637356Y2014608D01*
X9644214Y2021466D01*
X9664534Y2028070D01*
X9726002Y2028070D01*
X9678250Y2028070D02*
G01*
X9630498Y2103254D01*
X9349145Y2184036D02*
G01*
X9349145Y2177178D01*
X9342287Y2163716D01*
X9335429Y2156858D01*
X9321967Y2150000D01*
X9294535Y2150000D01*
X9281073Y2156858D01*
X9274215Y2163716D01*
X9267357Y2177178D01*
X9267357Y2190894D01*
X9274215Y2204610D01*
X9287677Y2224930D01*
X9356003Y2293256D01*
X9260499Y2293256D01*
X9842286Y2619997D02*
G01*
X9767356Y2619997D01*
X9808250Y2674607D01*
X9787930Y2674607D01*
X9774214Y2681465D01*
X9767356Y2688323D01*
X9760498Y2708643D01*
X9760498Y2722359D01*
X9767356Y2742679D01*
X9781072Y2756395D01*
X9801392Y2763253D01*
X9821966Y2763253D01*
X9842286Y2756395D01*
X9849144Y2749537D01*
X9856002Y2736075D01*
X9273895Y3144037D02*
G01*
X9280499Y3130321D01*
X9294215Y3116859D01*
X9307931Y3110001D01*
X9335109Y3110001D01*
X9348825Y3116859D01*
X9362541Y3130321D01*
X9369145Y3144037D01*
X9376003Y3164357D01*
X9376003Y3198647D01*
X9369145Y3218967D01*
X9362541Y3232683D01*
X9348825Y3246399D01*
X9335109Y3253003D01*
X9307931Y3253003D01*
X9294215Y3246399D01*
X9280499Y3232683D01*
X9273895Y3218967D01*
X9273895Y3198647D01*
X9307931Y3198647D02*
G01*
X9273895Y3198647D01*
X10518246Y2410000D02*
G01*
X10518246Y2553256D01*
X10565998Y2410000D02*
G01*
X10470494Y2410000D01*
X9428251Y2409997D02*
G01*
X9428251Y2553253D01*
X9476003Y2409997D02*
G01*
X9380499Y2409997D01*
D10*
X10026408Y3581069D02*
G01*
X10026408Y3498011D01*
X10021074Y3482263D01*
X10015994Y3477183D01*
X10005580Y3472103D01*
X9995166Y3472103D01*
X9984752Y3477183D01*
X9979418Y3482263D01*
X9974338Y3498011D01*
X9974338Y3508425D01*
X10065778Y3555161D02*
G01*
X10065778Y3560241D01*
X10070858Y3570655D01*
X10076192Y3575989D01*
X10086606Y3581069D01*
X10107434Y3581069D01*
X10117848Y3575989D01*
X10122928Y3570655D01*
X10128008Y3560241D01*
X10128008Y3549827D01*
X10122928Y3539413D01*
X10112514Y3523919D01*
X10060698Y3472103D01*
X10133342Y3472103D01*
X10167632Y3518839D02*
G01*
X10261104Y3518839D01*
X10295394Y3581069D02*
G01*
X10295394Y3472103D01*
X10295394Y3581069D02*
G01*
X10342130Y3581069D01*
X10357878Y3575989D01*
X10362958Y3570655D01*
X10368038Y3560241D01*
X10368038Y3549827D01*
X10362958Y3539413D01*
X10357878Y3534333D01*
X10342130Y3529253D01*
X10295394Y3529253D01*
X10331716Y3529253D02*
G01*
X10368038Y3472103D01*
X5816600Y5500115D02*
G01*
X5816600Y5391150D01*
X5816600Y5500115D02*
G01*
X5863336Y5500115D01*
X5878829Y5495036D01*
X5884163Y5489702D01*
X5889243Y5479287D01*
X5889243Y5468873D01*
X5884163Y5458460D01*
X5878829Y5453379D01*
X5863336Y5448300D01*
X5816600Y5448300D01*
X5852922Y5448300D02*
G01*
X5889243Y5391150D01*
X5923534Y5479287D02*
G01*
X5933947Y5484621D01*
X5949695Y5500115D01*
X5949695Y5391150D01*
X5816600Y2706115D02*
G01*
X5816600Y2597150D01*
X5816600Y2706115D02*
G01*
X5863336Y2706115D01*
X5878829Y2701036D01*
X5884163Y2695702D01*
X5889243Y2685287D01*
X5889243Y2674873D01*
X5884163Y2664460D01*
X5878829Y2659379D01*
X5863336Y2654300D01*
X5816600Y2654300D01*
X5852922Y2654300D02*
G01*
X5889243Y2597150D01*
X5928868Y2680207D02*
G01*
X5928868Y2685287D01*
X5933947Y2695702D01*
X5939281Y2701036D01*
X5949695Y2706115D01*
X5970270Y2706115D01*
X5980684Y2701036D01*
X5986018Y2695702D01*
X5991097Y2685287D01*
X5991097Y2674873D01*
X5986018Y2664460D01*
X5975604Y2648965D01*
X5923534Y2597150D01*
X5996431Y2597150D01*
X3783596Y1498600D02*
G01*
X3892562Y1498600D01*
X3783596Y1498600D02*
G01*
X3783596Y1545336D01*
X3788676Y1560829D01*
X3794010Y1566163D01*
X3804424Y1571244D01*
X3814838Y1571244D01*
X3825252Y1566163D01*
X3830332Y1560829D01*
X3835412Y1545336D01*
X3835412Y1498600D01*
X3835412Y1534921D02*
G01*
X3892562Y1571244D01*
X3783596Y1605534D02*
G01*
X3892562Y1605534D01*
X3783596Y1605534D02*
G01*
X3892562Y1678431D01*
X3783596Y1678431D02*
G01*
X3892562Y1678431D01*
X3804424Y1712721D02*
G01*
X3799090Y1723136D01*
X3783596Y1738629D01*
X3892562Y1738629D01*
X3783596Y2260600D02*
G01*
X3892562Y2260600D01*
X3783596Y2260600D02*
G01*
X3783596Y2307336D01*
X3788676Y2322829D01*
X3794010Y2328163D01*
X3804424Y2333244D01*
X3814838Y2333244D01*
X3825252Y2328163D01*
X3830332Y2322829D01*
X3835412Y2307336D01*
X3835412Y2260600D01*
X3835412Y2296921D02*
G01*
X3892562Y2333244D01*
X3783596Y2367534D02*
G01*
X3892562Y2367534D01*
X3783596Y2367534D02*
G01*
X3892562Y2440431D01*
X3783596Y2440431D02*
G01*
X3892562Y2440431D01*
X3809504Y2479802D02*
G01*
X3804424Y2479802D01*
X3794010Y2485136D01*
X3788676Y2490215D01*
X3783596Y2500629D01*
X3783596Y2521457D01*
X3788676Y2531871D01*
X3794010Y2536952D01*
X3804424Y2542286D01*
X3814838Y2542286D01*
X3825252Y2536952D01*
X3840746Y2526537D01*
X3892562Y2474721D01*
X3892562Y2547365D01*
X3783596Y5054600D02*
G01*
X3892562Y5054600D01*
X3783596Y5054600D02*
G01*
X3783596Y5101336D01*
X3788676Y5116829D01*
X3794010Y5122163D01*
X3804424Y5127244D01*
X3814838Y5127244D01*
X3825252Y5122163D01*
X3830332Y5116829D01*
X3835412Y5101336D01*
X3835412Y5054600D01*
X3835412Y5090921D02*
G01*
X3892562Y5127244D01*
X3783596Y5161534D02*
G01*
X3892562Y5161534D01*
X3783596Y5161534D02*
G01*
X3892562Y5234431D01*
X3783596Y5234431D02*
G01*
X3892562Y5234431D01*
X3783596Y5279136D02*
G01*
X3783596Y5336286D01*
X3825252Y5305044D01*
X3825252Y5320537D01*
X3830332Y5330952D01*
X3835412Y5336286D01*
X3851160Y5341365D01*
X3861574Y5341365D01*
X3877068Y5336286D01*
X3887482Y5325871D01*
X3892562Y5310123D01*
X3892562Y5294629D01*
X3887482Y5279136D01*
X3882402Y5273802D01*
X3871988Y5268721D01*
X3783596Y5816600D02*
G01*
X3892562Y5816600D01*
X3783596Y5816600D02*
G01*
X3783596Y5863336D01*
X3788676Y5878829D01*
X3794010Y5884163D01*
X3804424Y5889244D01*
X3814838Y5889244D01*
X3825252Y5884163D01*
X3830332Y5878829D01*
X3835412Y5863336D01*
X3835412Y5816600D01*
X3835412Y5852921D02*
G01*
X3892562Y5889244D01*
X3783596Y5923534D02*
G01*
X3892562Y5923534D01*
X3783596Y5923534D02*
G01*
X3892562Y5996431D01*
X3783596Y5996431D02*
G01*
X3892562Y5996431D01*
X3783596Y6082537D02*
G01*
X3856240Y6030721D01*
X3856240Y6108700D01*
X3783596Y6082537D02*
G01*
X3892562Y6082537D01*
D12*
X914397Y1155697D02*
G01*
X342897Y1155697D01*
X342897Y1498597D01*
X914397Y1498597D01*
X914397Y6197602D02*
G01*
X342897Y6197602D01*
X342897Y5854702D01*
X914397Y5854702D01*
X317497Y1727197D02*
G01*
X901697Y1727197D01*
X317497Y5626102D02*
G01*
X317497Y1727197D01*
X914397Y5626102D02*
G01*
X317497Y5626102D01*
X914397Y6324602D02*
G01*
X2158997Y6324602D01*
X914397Y1015997D02*
G01*
X914397Y6324602D01*
X2158997Y1015997D02*
G01*
X914397Y1015997D01*
X2158997Y6324602D02*
G01*
X2158997Y1015997D01*
X1866897Y6324602D02*
G01*
X2158997Y6324602D01*
X9799817Y4812840D02*
G01*
X9823952Y4751052D01*
X9776310Y4818522D02*
G01*
X9823952Y4696518D01*
X10147127Y4812840D02*
G01*
X10122999Y4751052D01*
X10170642Y4818522D02*
G01*
X10122999Y4696518D01*
X9832233Y4843876D02*
G01*
X9843259Y4872799D01*
X9872179Y4883843D01*
X9973477Y4883843D01*
X9832233Y4843876D02*
G01*
X9828331Y4787366D01*
X10114714Y4843876D02*
G01*
X10103695Y4872799D01*
X10074772Y4883843D01*
X9973477Y4883843D01*
X10114714Y4843876D02*
G01*
X10118620Y4787366D01*
X9823952Y4751052D02*
G01*
X9973477Y4751052D01*
X10122999Y4751052D02*
G01*
X9973477Y4751052D01*
X10122999Y4551052D02*
G01*
X9973477Y4551052D01*
X9823952Y4551052D02*
G01*
X9973477Y4551052D01*
X10122999Y4787366D02*
G01*
X9973477Y4787366D01*
X10122999Y4531047D02*
G01*
X10122999Y4787366D01*
X10122999Y4531047D02*
G01*
X9973477Y4531047D01*
X9823952Y4787366D02*
G01*
X9973477Y4787366D01*
X9823952Y4531047D02*
G01*
X9823952Y4787366D01*
X9823952Y4531047D02*
G01*
X9973477Y4531047D01*
X9973477Y4463516D02*
G01*
X9735761Y4463516D01*
X9643424Y4650945D02*
G01*
X9642043Y4657829D01*
X9694722Y4844336D01*
X9643424Y4650945D02*
G01*
X9637925Y4630259D01*
X9735761Y4463516D02*
G01*
X9637930Y4488322D01*
X9637930Y4514509D01*
X9537329Y4555850D01*
X9566252Y4630259D01*
X9637925Y4630259D01*
X10303522Y4650945D02*
G01*
X10304904Y4657829D01*
X10252232Y4844336D01*
X10303522Y4650945D02*
G01*
X10309021Y4630259D01*
X10211191Y4463516D02*
G01*
X10309021Y4488322D01*
X10309021Y4514509D01*
X10409618Y4555850D01*
X10380695Y4630259D01*
X10309021Y4630259D01*
X9973477Y4463516D02*
G01*
X10211191Y4463516D01*
X9472899Y4732294D02*
G01*
X9423476Y4648248D01*
X10474048Y4732294D02*
G01*
X10523471Y4648248D01*
X9148472Y6413517D02*
G01*
X9078473Y6413517D01*
X9078473Y6470667D02*
G01*
X9078473Y6413517D01*
X9148472Y6465681D02*
G01*
X9148472Y6413517D01*
X9098473Y6465676D02*
G01*
X9098473Y6413517D01*
X9473476Y4620592D02*
G01*
X9436275Y4548957D01*
X9323476Y6833516D02*
G01*
X9323476Y6943519D01*
X9473476Y6833516D02*
G01*
X9473476Y6943519D01*
X9440976Y6973521D02*
G01*
X9473476Y6943519D01*
X9440976Y6973521D02*
G01*
X9355975Y6973521D01*
X9323476Y6943519D01*
X10505978Y6973521D02*
G01*
X10473476Y6943519D01*
X10505978Y6973521D02*
G01*
X10590977Y6973521D01*
X10623476Y6943519D01*
X10623476Y6833516D02*
G01*
X10623476Y6943519D01*
X10473476Y6833516D02*
G01*
X10473476Y6943519D01*
X10783473Y6305407D02*
G01*
X10783473Y6833516D01*
X10923478Y6107663D02*
G01*
X10923478Y6833516D01*
X8983472Y6833516D02*
G01*
X10923478Y6833516D01*
X9799817Y1256840D02*
G01*
X9823952Y1195052D01*
X9776310Y1262522D02*
G01*
X9823952Y1140518D01*
X10147127Y1256840D02*
G01*
X10122999Y1195052D01*
X10170642Y1262522D02*
G01*
X10122999Y1140518D01*
X9832233Y1287876D02*
G01*
X9843259Y1316799D01*
X9872179Y1327843D01*
X9973477Y1327843D01*
X9832233Y1287876D02*
G01*
X9828331Y1231366D01*
X10114714Y1287876D02*
G01*
X10103695Y1316799D01*
X10074772Y1327843D01*
X9973477Y1327843D01*
X10114714Y1287876D02*
G01*
X10118620Y1231366D01*
X9823952Y1195052D02*
G01*
X9973477Y1195052D01*
X10122999Y1195052D02*
G01*
X9973477Y1195052D01*
X10122999Y995052D02*
G01*
X9973477Y995052D01*
X9823952Y995052D02*
G01*
X9973477Y995052D01*
X10122999Y1231366D02*
G01*
X9973477Y1231366D01*
X10122999Y975047D02*
G01*
X10122999Y1231366D01*
X10122999Y975047D02*
G01*
X9973477Y975047D01*
X9823952Y1231366D02*
G01*
X9973477Y1231366D01*
X9823952Y975047D02*
G01*
X9823952Y1231366D01*
X9823952Y975047D02*
G01*
X9973477Y975047D01*
X9973477Y907516D02*
G01*
X9735761Y907516D01*
X9643424Y1094945D02*
G01*
X9642043Y1101829D01*
X9694722Y1288336D01*
X9643424Y1094945D02*
G01*
X9637925Y1074259D01*
X9735761Y907516D02*
G01*
X9637930Y932322D01*
X9637930Y958509D01*
X9537329Y999850D01*
X9566252Y1074259D01*
X9637925Y1074259D01*
X10303522Y1094945D02*
G01*
X10304904Y1101829D01*
X10252232Y1288336D01*
X10303522Y1094945D02*
G01*
X10309021Y1074259D01*
X10211191Y907516D02*
G01*
X10309021Y932322D01*
X10309021Y958509D01*
X10409618Y999850D01*
X10380695Y1074259D01*
X10309021Y1074259D01*
X9973477Y907516D02*
G01*
X10211191Y907516D01*
X9472899Y1176294D02*
G01*
X9423476Y1092248D01*
X10474048Y1176294D02*
G01*
X10523471Y1092248D01*
X9148472Y2857517D02*
G01*
X9078473Y2857517D01*
X9078473Y2914667D02*
G01*
X9078473Y2857517D01*
X9148472Y2909681D02*
G01*
X9148472Y2857517D01*
X9098473Y2909676D02*
G01*
X9098473Y2857517D01*
X9473476Y1064592D02*
G01*
X9436275Y992957D01*
X9323476Y3277516D02*
G01*
X9323476Y3387519D01*
X9473476Y3277516D02*
G01*
X9473476Y3387519D01*
X9440976Y3417521D02*
G01*
X9473476Y3387519D01*
X9440976Y3417521D02*
G01*
X9355975Y3417521D01*
X9323476Y3387519D01*
X10505978Y3417521D02*
G01*
X10473476Y3387519D01*
X10505978Y3417521D02*
G01*
X10590977Y3417521D01*
X10623476Y3387519D01*
X10623476Y3277516D02*
G01*
X10623476Y3387519D01*
X10473476Y3277516D02*
G01*
X10473476Y3387519D01*
X10783473Y2749407D02*
G01*
X10783473Y3277516D01*
X10923478Y2551663D02*
G01*
X10923478Y3277516D01*
X8983472Y3277516D02*
G01*
X10923478Y3277516D01*
X5492013Y5329986D02*
G01*
X6192011Y5329986D01*
X6192011Y4829987D01*
X5492013Y4829987D01*
X5492013Y5329986D01*
X5492013Y2535986D02*
G01*
X6192011Y2535986D01*
X6192011Y2035987D01*
X5492013Y2035987D01*
X5492013Y2535986D01*
D13*
X4109001Y1710956D02*
G01*
X4208978Y1710956D01*
X4209003Y1336967D01*
X4104990Y1336967D01*
X4019003Y1337005D02*
G01*
X3917022Y1337005D01*
X3916997Y1710994D01*
X4021028Y1710994D01*
X4109001Y2472956D02*
G01*
X4208978Y2472956D01*
X4209003Y2098967D01*
X4104990Y2098967D01*
X4019003Y2099005D02*
G01*
X3917022Y2099005D01*
X3916997Y2472994D01*
X4021028Y2472994D01*
X4109001Y5266956D02*
G01*
X4208978Y5266956D01*
X4209003Y4892967D01*
X4104990Y4892967D01*
X4019003Y4893005D02*
G01*
X3917022Y4893005D01*
X3916997Y5266994D01*
X4021028Y5266994D01*
X4109001Y6028956D02*
G01*
X4208978Y6028956D01*
X4209003Y5654967D01*
X4104990Y5654967D01*
X4019003Y5655005D02*
G01*
X3917022Y5655005D01*
X3916997Y6028994D01*
X4021028Y6028994D01*
D12*
G75*
G01*
X9001597Y6687081D02*
G03*
X9052900Y6481839I-18125J-113564D01*
G75*
G01*
X9027249Y6716989D02*
G03*
X9078476Y6457437I-43773J-143470D01*
G75*
G01*
X10803402Y4388635D02*
G03*
X11122950Y4798865I159774J205115D01*
G75*
G01*
X10523474Y4648251D02*
G03*
X9473476Y4620593I-549999J935267D01*
G75*
G01*
X10117282Y4806719D02*
G03*
X10756481Y5478630I-143808J776801D01*
G75*
G01*
X9823458Y5891416D02*
G03*
X9665576Y5733537I150016J-307900D01*
G75*
G01*
X9665576Y5433502D02*
G03*
X10281374Y5433502I307899J150018D01*
G75*
G01*
X9823458Y5891416D02*
G03*
X9665576Y5733537I150016J-307900D01*
G75*
G01*
X10314236Y5445712D02*
G03*
X10456809Y5458795I59241J137806D01*
G75*
G01*
X9632714Y5721327D02*
G03*
X9490144Y5708241I-59237J-137807D01*
G75*
G01*
X10111283Y5924281D02*
G03*
X10030457Y6122274I-137807J59238D01*
G75*
G01*
X10281374Y5733537D02*
G03*
X10123493Y5891416I-307897J-150021D01*
G75*
G01*
X9665576Y5433502D02*
G03*
X10281374Y5433502I307899J150018D01*
G75*
G01*
X10314236Y5445712D02*
G03*
X10281374Y5433502I-10029J-23336D01*
G75*
G01*
X10111283Y5924281D02*
G03*
X10123493Y5891416I23335J-10031D01*
G75*
G01*
X10281374Y5733537D02*
G03*
X10314236Y5721327I22833J11126D01*
G75*
G01*
X9665576Y5433502D02*
G03*
X9632714Y5445712I-22833J-11126D01*
G75*
G01*
X9823458Y5891416D02*
G03*
X9835667Y5924281I-11126J22834D01*
G75*
G01*
X9632714Y5721327D02*
G03*
X9665576Y5733537I10029J23336D01*
G75*
G01*
X10803402Y4388635D02*
G03*
X10495412Y4425726I-184698J-236402D01*
G75*
G01*
X9486697Y4410512D02*
G03*
X10495412Y4425726I486780J1173007D01*
G75*
G01*
X9436278Y4548957D02*
G03*
X9486697Y4410512I88748J-46083D01*
G75*
G01*
X9397230Y4664189D02*
G03*
X9429212Y4531497I853J-69994D01*
G75*
G01*
X10997415Y5224671D02*
G03*
X11122950Y4798865I358613J-125683D01*
G75*
G01*
X8949535Y5942368D02*
G03*
X8824001Y6368171I-358614J125681D01*
G75*
G01*
X9182326Y6741025D02*
G03*
X8824001Y6368171I-198848J-167509D01*
G75*
G01*
X9256967Y6665100D02*
G03*
X9614626Y6607459I231979J300973D01*
G75*
G01*
X10303927Y4652950D02*
G03*
X9643024Y4652950I-330452J930570D01*
G75*
G01*
X9190469Y5478630D02*
G03*
X9829668Y4806719I783007J104890D01*
G75*
G01*
X10756481Y5688406D02*
G03*
X9190469Y5688406I-783006J-104897D01*
G75*
G01*
X9916493Y6122274D02*
G03*
X9835667Y5924281I56981J-138755D01*
G75*
G01*
X9490144Y5458795D02*
G03*
X9632714Y5445712I83331J124723D01*
G75*
G01*
X10456809Y5708241D02*
G03*
X10314236Y5721327I-83334J-124721D01*
G75*
G01*
X9001597Y3131081D02*
G03*
X9052900Y2925839I-18125J-113564D01*
G75*
G01*
X9027249Y3160989D02*
G03*
X9078476Y2901437I-43773J-143470D01*
G75*
G01*
X10803402Y832635D02*
G03*
X11122950Y1242865I159774J205115D01*
G75*
G01*
X10523474Y1092251D02*
G03*
X9473476Y1064593I-549999J935267D01*
G75*
G01*
X10117282Y1250719D02*
G03*
X10756481Y1922630I-143808J776801D01*
G75*
G01*
X9823458Y2335416D02*
G03*
X9665576Y2177537I150016J-307900D01*
G75*
G01*
X9665576Y1877502D02*
G03*
X10281374Y1877502I307899J150018D01*
G75*
G01*
X9823458Y2335416D02*
G03*
X9665576Y2177537I150016J-307900D01*
G75*
G01*
X10314236Y1889712D02*
G03*
X10456809Y1902795I59241J137806D01*
G75*
G01*
X9632714Y2165327D02*
G03*
X9490144Y2152241I-59237J-137807D01*
G75*
G01*
X10111283Y2368281D02*
G03*
X10030457Y2566274I-137807J59238D01*
G75*
G01*
X10281374Y2177537D02*
G03*
X10123493Y2335416I-307897J-150021D01*
G75*
G01*
X9665576Y1877502D02*
G03*
X10281374Y1877502I307899J150018D01*
G75*
G01*
X10314236Y1889712D02*
G03*
X10281374Y1877502I-10029J-23336D01*
G75*
G01*
X10111283Y2368281D02*
G03*
X10123493Y2335416I23335J-10031D01*
G75*
G01*
X10281374Y2177537D02*
G03*
X10314236Y2165327I22833J11126D01*
G75*
G01*
X9665576Y1877502D02*
G03*
X9632714Y1889712I-22833J-11126D01*
G75*
G01*
X9823458Y2335416D02*
G03*
X9835667Y2368281I-11126J22834D01*
G75*
G01*
X9632714Y2165327D02*
G03*
X9665576Y2177537I10029J23336D01*
G75*
G01*
X10803402Y832635D02*
G03*
X10495412Y869726I-184698J-236402D01*
G75*
G01*
X9486697Y854512D02*
G03*
X10495412Y869726I486780J1173007D01*
G75*
G01*
X9436278Y992957D02*
G03*
X9486697Y854512I88748J-46083D01*
G75*
G01*
X9397230Y1108189D02*
G03*
X9429212Y975497I853J-69994D01*
G75*
G01*
X10997415Y1668671D02*
G03*
X11122950Y1242865I358613J-125683D01*
G75*
G01*
X8949535Y2386368D02*
G03*
X8824001Y2812171I-358614J125681D01*
G75*
G01*
X9182326Y3185025D02*
G03*
X8824001Y2812171I-198848J-167509D01*
G75*
G01*
X9256967Y3109100D02*
G03*
X9614626Y3051459I231979J300973D01*
G75*
G01*
X10303927Y1096950D02*
G03*
X9643024Y1096950I-330452J930570D01*
G75*
G01*
X9190469Y1922630D02*
G03*
X9829668Y1250719I783007J104890D01*
G75*
G01*
X10756481Y2132406D02*
G03*
X9190469Y2132406I-783006J-104897D01*
G75*
G01*
X9916493Y2566274D02*
G03*
X9835667Y2368281I56981J-138755D01*
G75*
G01*
X9490144Y1902795D02*
G03*
X9632714Y1889712I83331J124723D01*
G75*
G01*
X10456809Y2152241D02*
G03*
X10314236Y2165327I-83334J-124721D01*
G75*
G01
X11078515Y4593539D02*
G03X11078515Y4593539I-115011J0D01*
G75*
G01
X11113516Y4593539D02*
G03X11113516Y4593539I-150012J0D01*
G75*
G01
X11078515Y1037539D02*
G03X11078515Y1037539I-115011J0D01*
G75*
G01
X11113516Y1037539D02*
G03X11113516Y1037539I-150012J0D01*
M02*
